<?xml version="1.0" standalone="no"?>
<!DOCTYPE svg PUBLIC "-//W3C//DTD SVG 20010904//EN"
 "http://www.w3.org/TR/2001/REC-SVG-20010904/DTD/svg10.dtd">
<svg version="1.0" xmlns="http://www.w3.org/2000/svg"
 width="640.000000pt" height="640.000000pt" viewBox="0 0 640.000000 640.000000"
 preserveAspectRatio="xMidYMid meet">
<metadata>
Created by potrace 1.11, written by Peter Selinger 2001-2013
</metadata>
<g transform="translate(0.000000,640.000000) scale(0.100000,-0.100000)"
fill="#000000" stroke="none">
<path d="M0 3545 l0 -2855 53 0 c79 0 313 44 347 65 4 3 40 12 80 20 63 13 80
13 143 0 73 -15 244 -93 230 -105 -5 -4 -30 -15 -58 -25 -76 -27 -187 -88
-315 -173 -63 -42 -119 -82 -125 -88 -5 -6 -42 -38 -81 -73 l-72 -62 -96 16
c-53 8 -98 15 -101 15 -3 0 -5 -13 -5 -29 0 -28 2 -30 70 -41 38 -6 70 -14 70
-17 0 -17 -93 -112 -115 -117 -21 -5 -25 -12 -25 -41 l0 -35 62 0 c40 0 67 5
78 15 13 12 42 20 93 24 17 2 5 18 -21 27 l-27 10 53 52 c30 29 58 49 63 46 6
-3 25 -8 42 -10 47 -7 185 -53 239 -80 26 -13 57 -38 70 -54 22 -30 22 -30
125 -30 57 0 103 3 103 8 0 4 28 18 61 31 49 19 73 22 121 18 69 -6 77 -11 60
-37 -12 -20 -8 -20 170 -19 l183 0 -55 20 c-30 11 -118 32 -195 46 -77 13
-158 31 -180 39 -22 7 -61 14 -86 14 -25 0 -59 6 -75 14 -16 8 -65 19 -109 25
-44 5 -98 14 -120 20 -33 9 -143 27 -273 46 -13 2 -26 6 -29 8 -12 12 221 180
348 250 130 72 304 115 349 87 12 -7 11 -16 -9 -56 -25 -50 -21 -76 13 -82 32
-7 89 66 85 106 -1 9 -1 28 0 41 1 20 5 22 28 16 15 -3 62 -10 106 -15 78 -9
233 -37 485 -87 107 -21 135 -24 142 -13 4 7 13 9 19 6 10 -6 16 12 12 36 -3
20 47 30 123 26 69 -4 115 -14 206 -45 11 -4 9 -7 -7 -14 -13 -4 -23 -11 -23
-14 0 -4 5 -3 12 1 7 4 8 3 4 -4 -4 -7 -17 -12 -29 -12 -24 0 -57 -31 -57 -55
0 -9 25 -21 73 -35 75 -21 110 -37 215 -95 35 -19 68 -35 73 -35 6 0 38 -23
72 -50 46 -38 70 -50 95 -50 46 0 61 -10 116 -79 l49 -61 356 2 c347 3 356 3
359 23 2 11 6 27 9 35 19 51 -20 200 -53 200 -8 0 -14 6 -14 14 0 8 -5 18 -12
22 -7 5 -8 3 -3 -6 6 -9 0 -10 -26 -5 -45 10 -49 13 -49 35 0 10 -5 22 -11 25
-6 4 -8 13 -6 20 3 6 -3 19 -14 28 -10 9 -16 22 -14 30 3 7 -5 22 -19 34 -13
12 -28 27 -32 35 -5 7 -35 34 -68 61 -57 46 -88 59 -83 35 1 -9 -8 -12 -28
-10 -17 1 -48 -6 -70 -17 -29 -14 -45 -16 -58 -9 -11 5 -28 8 -38 5 -10 -3
-17 -1 -13 4 3 5 -9 9 -25 9 -21 0 -31 5 -31 15 0 14 -12 20 -33 16 -5 -1 -11
7 -14 18 -4 14 -14 19 -41 19 -21 0 -57 6 -82 12 -40 11 -129 14 -245 8 -39
-2 -153 6 -283 18 -63 6 -92 22 -92 50 0 8 -8 14 -19 14 -10 0 -24 7 -31 15
-6 8 -24 13 -38 11 -15 -2 -21 -1 -14 1 25 9 11 21 -28 21 -22 0 -55 6 -73 13
-43 15 -127 4 -127 -17 0 -8 -4 -14 -10 -14 -5 0 -10 7 -10 15 0 10 -11 14
-37 14 -70 -2 -136 12 -182 37 -69 37 -165 135 -199 201 -16 32 -42 83 -58
113 -16 31 -30 60 -31 65 -1 6 -5 18 -8 27 -6 15 -3 16 21 9 16 -5 79 -12 139
-15 176 -10 383 -25 480 -36 50 -6 140 -15 200 -20 261 -23 620 -92 835 -161
204 -66 302 -128 435 -277 162 -180 250 -241 426 -293 67 -20 105 -23 409 -29
184 -4 336 -8 338 -8 9 -6 -1 -22 -18 -27 -28 -9 -25 -25 6 -25 14 0 35 -5 47
-12 12 -6 62 -12 112 -14 163 -5 247 -13 261 -25 19 -16 18 -36 -4 -48 -15 -9
-15 -13 -4 -31 11 -18 11 -25 -1 -38 -8 -10 -12 -24 -9 -32 2 -8 -9 -3 -25 13
-16 15 -36 27 -43 27 -8 0 -55 -20 -105 -45 -75 -37 -95 -53 -122 -93 -35 -50
-39 -62 -23 -62 6 0 10 5 10 11 0 6 6 17 14 25 20 20 83 -1 65 -22 -18 -22 6
-17 50 10 36 23 106 56 119 56 3 0 -4 -10 -16 -23 -12 -13 -19 -27 -15 -30 3
-4 1 -7 -5 -7 -7 0 -12 -4 -12 -10 0 -7 270 -10 790 -10 l790 0 0 915 c0 518
-4 915 -9 915 -5 0 -14 -7 -21 -15 -7 -8 -18 -15 -25 -15 -7 0 -52 -16 -101
-35 -91 -37 -114 -47 -219 -95 -69 -32 -126 -57 -140 -62 -9 -3 -106 -60 -228
-135 -77 -47 -129 -70 -213 -93 -41 -12 -98 -32 -127 -46 -29 -13 -58 -24 -65
-24 -7 0 -39 -12 -70 -27 -46 -21 -73 -27 -142 -29 -140 -3 -197 -32 -274
-136 -25 -34 -50 -68 -55 -74 -5 -7 -28 -49 -51 -95 -23 -46 -48 -91 -55 -99
-8 -8 -20 -28 -29 -44 l-15 -29 -6 26 c-8 30 -14 31 -68 16 -21 -5 -52 -12
-70 -13 -71 -7 -93 -17 -112 -52 -10 -19 -24 -34 -32 -34 -7 0 -16 -7 -19 -15
-4 -8 -11 -15 -17 -15 -6 0 -19 -8 -29 -17 -14 -13 -23 -15 -36 -7 -13 8 -21
5 -39 -17 -13 -15 -23 -34 -23 -44 0 -33 -20 -53 -61 -60 -50 -9 -44 -18 11
-17 52 1 137 29 144 47 3 8 13 13 23 13 22 -2 117 44 156 74 20 16 30 19 38
11 9 -9 0 -17 -32 -32 -24 -12 -68 -43 -98 -69 l-55 -48 190 -13 c104 -7 263
-19 354 -27 91 -7 176 -14 190 -14 20 0 22 -2 10 -10 -16 -10 -134 -7 -460 11
-102 5 -289 14 -415 19 -180 6 -248 13 -314 30 -99 25 -210 75 -231 104 -32
46 -225 226 -300 281 -22 17 -46 35 -53 40 -6 6 -47 30 -90 53 -145 78 -398
150 -667 191 -74 12 -157 26 -185 31 -128 25 -999 115 -1016 104 -5 -3 -7 -14
-4 -25 4 -10 4 -19 2 -19 -8 0 -77 118 -77 132 0 15 158 198 171 198 4 0 32
24 61 53 33 33 83 68 130 91 l76 39 -5 52 c-4 33 -1 55 6 59 6 4 11 28 11 53
0 34 8 57 32 94 17 27 39 49 48 49 10 0 23 7 30 15 7 8 21 15 32 15 10 0 29 6
41 14 18 11 37 12 95 4 41 -5 76 -7 79 -4 6 6 -8 80 -61 311 -30 127 -68 309
-78 370 -5 33 -18 74 -28 90 -10 17 -22 53 -25 81 -7 51 -6 53 36 98 24 25 52
46 62 46 10 0 27 -16 38 -35 12 -19 25 -35 31 -35 22 0 111 -87 139 -137 35
-61 45 -62 34 -6 -4 21 -9 54 -11 73 -2 19 -12 89 -22 155 -15 102 -21 120
-35 117 -12 -2 -17 4 -17 22 0 14 -4 27 -8 30 -5 3 -9 20 -10 37 0 18 -5 35
-9 38 -18 13 -54 85 -49 98 7 17 -11 54 -31 66 -8 5 -11 16 -8 27 3 10 1 21
-4 24 -11 7 -4 71 11 104 13 26 36 30 34 5 0 -12 7 -19 22 -21 20 -3 22 1 22
40 0 24 -4 48 -10 54 -5 5 -10 26 -12 47 -1 21 -6 41 -10 43 -4 3 -8 14 -8 25
0 14 4 18 13 12 6 -4 21 -6 33 -5 17 3 22 -4 27 -34 7 -44 3 -54 -24 -54 -10
0 -19 -4 -19 -9 0 -11 25 -21 54 -21 23 0 23 2 25 132 l2 133 40 52 c21 29 39
57 39 62 0 16 39 33 60 26 13 -4 20 -2 20 7 0 23 52 46 93 41 32 -5 37 -2 37
14 0 25 37 66 77 87 17 8 33 22 37 31 4 10 11 13 18 8 7 -4 25 -8 40 -9 22 -1
27 3 30 25 3 27 13 29 101 22 26 -2 21 -30 -8 -41 -38 -15 -39 -33 -4 -71 17
-19 44 -50 58 -69 47 -63 77 -77 83 -38 3 22 3 21 33 -6 l29 -27 18 23 17 23
16 -22 c9 -13 22 -23 29 -23 7 0 18 -12 25 -26 9 -21 14 -24 25 -15 11 9 18 7
30 -11 9 -12 16 -29 16 -36 0 -10 7 -12 24 -8 19 5 30 -1 50 -25 14 -17 26
-35 26 -40 0 -5 7 -9 15 -9 8 0 15 9 15 20 0 11 6 20 14 20 7 0 26 12 42 26
20 20 29 23 32 13 2 -8 13 -34 23 -57 l20 -44 22 24 c13 12 31 36 41 51 14 23
23 28 42 23 17 -5 26 -2 30 9 3 8 10 12 15 9 5 -3 9 0 9 7 0 6 8 9 19 6 12 -3
22 1 25 10 5 12 8 12 19 1 7 -7 16 -22 20 -32 4 -10 10 -16 14 -13 3 4 15 1
26 -4 18 -10 19 -9 15 15 -5 22 -2 26 19 26 20 0 23 4 18 21 -6 19 -4 20 24
14 22 -5 31 -3 31 7 1 7 16 -4 34 -24 36 -41 75 -54 56 -19 -7 15 -6 23 6 35
8 9 11 16 5 16 -6 0 -11 13 -11 29 0 28 18 91 26 91 17 0 64 -33 78 -55 12
-19 21 -23 29 -16 16 12 42 -6 51 -37 4 -13 13 -21 19 -19 15 5 34 -17 82 -88
46 -69 91 -168 86 -189 -1 -5 3 -12 9 -16 9 -5 9 -22 1 -64 -6 -33 -7 -64 -2
-74 14 -28 30 -126 21 -135 -4 -5 -4 -24 0 -42 5 -24 3 -40 -7 -54 -12 -19
-12 -21 1 -21 9 0 16 -5 16 -11 0 -6 -9 -8 -20 -4 -14 5 -20 2 -20 -9 0 -9 6
-15 13 -13 6 1 10 -5 8 -13 -7 -30 -6 -120 2 -120 4 0 7 -9 7 -20 0 -13 7 -20
20 -20 18 0 20 -7 20 -60 0 -40 4 -62 14 -67 19 -11 33 -123 16 -123 -10 0
-10 -3 0 -15 10 -12 10 -18 0 -30 -7 -8 -9 -15 -4 -15 5 0 20 18 34 40 13 22
28 40 32 40 4 0 36 22 70 50 34 28 71 50 82 50 85 -2 108 -151 45 -284 -20
-43 -25 -86 -10 -86 8 0 90 96 144 167 12 17 -38 129 -78 173 -39 43 -61 98
-81 204 -9 44 -26 121 -40 169 -34 122 -176 413 -251 512 -80 108 -266 295
-328 329 -27 16 -61 39 -75 52 -29 26 -140 85 -225 119 -73 29 -239 70 -355
86 -108 15 -445 6 -510 -15 -25 -7 -74 -17 -110 -21 -36 -4 -104 -20 -152 -36
-48 -16 -95 -29 -105 -29 -25 0 -176 -58 -308 -117 -60 -28 -131 -58 -158 -67
-26 -10 -53 -26 -60 -36 -8 -11 -32 -22 -55 -26 -24 -4 -45 -10 -47 -14 -3 -4
-11 -37 -18 -72 -12 -55 -12 -68 0 -83 7 -11 13 -31 13 -47 0 -53 30 -165 83
-311 20 -54 33 -95 28 -93 -5 3 -14 19 -21 36 -7 16 -16 30 -21 30 -5 0 -9 4
-9 10 0 5 -18 46 -40 92 -22 46 -40 93 -40 105 0 12 -14 44 -31 71 -28 45 -31
58 -30 126 1 91 6 115 39 181 41 82 70 114 116 126 22 7 77 23 121 36 98 30
243 66 395 98 63 14 147 31 185 40 202 44 265 50 525 49 238 -1 262 -2 365
-26 298 -71 523 -191 734 -393 226 -217 454 -588 556 -905 15 -47 38 -113 51
-148 29 -75 30 -108 4 -189 -21 -67 -54 -105 -145 -165 -47 -31 -50 -36 -53
-80 -3 -51 10 -88 33 -88 22 0 45 -40 39 -69 -4 -19 1 -32 15 -45 14 -13 21
-31 21 -55 0 -35 2 -37 45 -49 81 -21 111 -16 158 27 30 28 61 45 104 57 56
15 68 15 181 0 120 -16 224 -42 292 -73 48 -22 171 -124 212 -175 18 -23 43
-53 56 -67 12 -13 22 -28 22 -32 0 -20 31 -7 40 15 13 35 77 104 114 123 17 9
54 22 82 28 46 11 59 10 125 -11 88 -28 129 -30 172 -7 27 13 99 65 117 83 3
3 17 11 33 19 l27 14 0 402 c0 280 -3 404 -11 412 -6 6 -22 44 -36 84 -14 39
-39 95 -56 123 -54 92 -87 154 -87 165 0 15 33 27 93 34 42 5 48 4 45 -11 -2
-9 -13 -18 -25 -20 -41 -6 -46 -26 -23 -89 12 -33 39 -95 60 -138 l40 -80 0
347 c0 224 -4 349 -10 353 -21 13 -50 86 -53 132 -2 48 -2 48 31 48 37 0 43
20 10 31 -44 13 -45 44 -2 44 l24 0 0 391 c0 429 1 415 -66 618 -39 116 -37
124 29 119 l38 -4 -3 80 c-3 84 -6 89 -61 101 -27 5 -46 29 -33 42 3 4 16 1
29 -5 53 -27 62 -22 65 40 3 54 0 61 -38 112 -23 31 -50 58 -60 61 -10 3 -42
-4 -71 -15 -36 -15 -70 -20 -104 -18 l-50 3 -11 -45 c-22 -87 -74 -164 -132
-194 -76 -39 -238 -47 -527 -26 -82 6 -193 13 -245 15 -94 5 -293 15 -710 36
-118 5 -240 15 -270 21 -73 14 -140 48 -178 92 -44 50 -57 80 -72 158 -12 67
-12 67 -41 61 -24 -5 -30 -1 -39 21 -16 42 -12 64 21 132 43 88 58 98 52 37
-6 -56 8 -49 25 12 16 59 62 277 62 298 0 14 -9 17 -44 17 -48 0 -43 6 -60
-91 -8 -45 -38 -143 -48 -155 -5 -7 -12 -31 -16 -55 -8 -47 -37 -63 -37 -21 0
12 -7 27 -15 32 -13 8 -13 11 -1 19 7 5 10 14 7 20 -4 6 -2 11 4 11 6 0 8 5 5
10 -4 7 -13 7 -26 0 -15 -9 -19 -7 -19 5 0 8 -5 15 -10 15 -6 0 -28 28 -50 62
-31 47 -40 71 -40 105 l0 43 -1830 0 -1830 0 0 -2855z m3935 2606 c3 -5 1 -12
-5 -16 -5 -3 -10 1 -10 9 0 18 6 21 15 7z m-118 -163 c-3 -7 -5 -2 -5 12 0 14
2 19 5 13 2 -7 2 -19 0 -25z m-1859 -287 c20 -11 108 -120 223 -276 99 -136
98 -133 87 -172 -12 -44 -83 -100 -203 -158 -53 -25 -111 -62 -130 -81 -54
-54 -88 -40 -93 40 l-4 49 29 -7 c15 -4 33 -14 39 -22 6 -7 16 -14 23 -14 16
0 13 66 -4 80 -8 7 -15 18 -16 24 0 13 -112 106 -127 106 -5 0 -15 -7 -22 -15
-11 -13 -8 -21 16 -46 23 -24 28 -38 28 -72 -1 -22 -7 -43 -13 -45 -6 -2 -11
-12 -11 -23 0 -10 -6 -19 -14 -19 -7 0 -19 -6 -25 -14 -7 -8 -32 -20 -57 -27
-59 -18 -91 -63 -73 -103 7 -14 18 -26 25 -26 17 0 84 -69 84 -86 0 -8 -4 -14
-8 -14 -19 0 -69 31 -97 60 -16 16 -34 30 -41 30 -16 0 -84 77 -84 95 0 9 9
15 25 15 29 0 38 14 64 106 28 97 69 195 94 222 36 39 108 73 300 144 38 14
34 39 -13 82 -47 42 -44 42 -143 -32 -34 -26 -82 -60 -105 -76 -46 -31 -184
-173 -229 -234 -37 -51 -75 -92 -85 -92 -4 0 -8 16 -8 35 0 123 217 373 474
547 43 29 66 34 94 19z m1872 -55 c0 -19 -4 -38 -10 -41 -6 -4 -10 10 -10 34
0 23 5 41 10 41 6 0 10 -15 10 -34z m-3213 -3 c10 -13 16 -15 19 -5 3 6 18 12
33 12 32 0 62 -43 64 -94 2 -24 6 -32 16 -28 9 3 12 1 7 -6 -3 -6 -1 -14 4
-17 24 -15 31 -57 14 -83 l-16 -25 -54 59 c-30 33 -59 75 -65 94 -6 19 -20 49
-30 66 -11 17 -19 34 -19 38 0 11 13 6 27 -11z m3219 -90 c-2 -3 -14 -2 -27 2
-16 6 -18 9 -8 16 13 7 45 -9 35 -18z m-3146 -229 c0 -9 9 -18 20 -21 11 -3
18 -9 15 -13 -3 -5 -1 -20 5 -34 5 -15 11 -46 14 -70 3 -40 2 -43 -20 -43 -24
0 -35 26 -11 28 6 0 2 4 -10 9 -15 6 -23 18 -24 35 -2 27 -3 33 -12 55 -10 24
-3 70 11 70 6 0 12 -7 12 -16z m2710 -8 c80 -13 181 -36 225 -50 44 -14 92
-26 107 -26 15 0 33 -6 40 -13 7 -7 52 -34 100 -59 100 -53 219 -141 310 -229
74 -72 66 -86 -25 -41 -34 17 -111 50 -172 74 -101 40 -110 45 -117 75 -5 18
-17 34 -27 38 -11 3 -36 24 -55 45 -41 45 -46 47 -70 21 -15 -16 -15 -19 -1
-31 8 -7 15 -21 15 -31 0 -26 -30 -25 -116 4 -38 13 -129 36 -203 52 l-133 28
6 51 6 51 -20 -24 c-11 -13 -20 -34 -20 -47 0 -17 -6 -24 -19 -24 -29 0 -33
14 -22 76 10 53 25 84 40 84 3 0 71 -11 151 -24z m1074 -59 c17 -13 16 -15
-11 -38 -16 -13 -32 -31 -36 -39 -4 -8 -14 -26 -22 -40 -8 -14 -15 -35 -15
-47 0 -29 -14 -36 -55 -29 -43 8 -50 28 -29 84 14 35 15 48 5 63 -16 27 -5 41
33 38 17 -1 42 3 56 9 34 15 53 14 74 -1z m1330 -64 c28 -9 67 -21 86 -28 25
-8 50 -9 85 -2 28 5 72 10 100 11 55 1 67 -14 41 -49 -12 -17 -27 -20 -97 -22
-84 -2 -116 -17 -62 -28 15 -4 42 -12 58 -18 17 -7 34 -12 40 -12 5 0 19 -19
31 -43 17 -34 20 -51 13 -80 -4 -20 -10 -84 -14 -142 -3 -58 -11 -124 -17
-147 -11 -39 -13 -40 -37 -31 -14 5 -46 26 -70 46 -25 20 -57 43 -71 50 -73
38 -150 87 -155 100 -3 7 4 33 15 57 23 51 25 68 8 98 -6 12 -19 51 -28 87
-15 62 -19 66 -69 97 -28 17 -52 35 -53 40 -2 16 47 33 96 33 26 0 71 -7 100
-17z m-5074 -89 c0 -8 -4 -12 -10 -9 -5 3 -10 10 -10 16 0 5 5 9 10 9 6 0 10
-7 10 -16z m1330 -101 c0 -9 -61 -117 -70 -123 -3 -3 -21 -27 -40 -55 -19 -27
-36 -52 -39 -55 -4 -3 -26 -29 -50 -58 -23 -28 -47 -50 -51 -47 -11 7 -1 46
17 67 8 9 12 22 8 27 -3 6 -1 11 5 11 7 0 9 7 6 16 -4 10 8 35 31 66 21 27 39
44 41 38 2 -5 15 -10 28 -10 19 0 24 5 24 27 0 17 13 39 38 64 36 36 52 46 52
32z m2444 -117 c43 -8 85 -21 93 -29 13 -13 13 -17 -6 -36 -12 -12 -29 -21
-39 -21 -10 0 -28 -12 -41 -26 -14 -16 -30 -24 -44 -22 -23 3 -23 6 -10 72 5
23 0 33 -23 52 -34 27 -32 28 70 10z m-3824 -16 c0 -5 -4 -10 -10 -10 -5 0
-10 5 -10 10 0 6 5 10 10 10 6 0 10 -4 10 -10z m5051 -123 c26 -17 39 -38 56
-87 25 -72 24 -90 -7 -90 -11 0 -20 -4 -20 -10 0 -5 8 -10 18 -10 23 0 59 -26
50 -35 -4 -4 -28 2 -53 14 -36 17 -45 26 -40 40 4 12 -2 23 -19 34 -35 23 -71
139 -49 160 11 12 29 8 64 -16z m-853 -202 c56 -19 108 -32 116 -29 9 3 27 -4
42 -15 15 -12 40 -21 56 -21 39 0 184 -68 229 -108 20 -17 74 -57 120 -88 127
-86 170 -125 163 -147 -5 -15 -2 -17 19 -12 15 4 38 0 56 -9 43 -23 40 -40 -6
-33 -27 5 -33 3 -25 -5 7 -7 12 -20 12 -30 0 -10 4 -18 9 -18 10 0 156 -146
189 -188 12 -17 22 -34 22 -40 0 -5 10 -17 21 -28 12 -10 40 -44 62 -74 23
-30 44 -59 49 -65 4 -5 23 -29 42 -51 20 -23 36 -45 36 -50 1 -5 14 -25 30
-44 20 -22 30 -45 30 -66 0 -18 6 -34 14 -37 7 -3 16 -18 19 -34 9 -48 37
-156 53 -205 9 -26 13 -51 11 -56 -3 -4 3 -28 14 -52 17 -37 20 -61 17 -132
-2 -47 -7 -90 -11 -95 -14 -13 -36 27 -36 66 0 20 -4 58 -9 86 -6 27 -9 52 -7
56 2 3 -9 38 -25 78 -17 40 -30 77 -30 82 0 5 -9 18 -19 28 -18 18 -19 18 -24
1 -2 -9 0 -25 5 -34 19 -33 -1 -28 -63 15 -103 74 -122 99 -75 99 14 0 36 4
50 10 19 7 29 6 40 -5 23 -23 38 -18 34 13 -3 24 -7 27 -38 27 -19 0 -58 -4
-87 -7 -46 -6 -53 -5 -58 13 -4 10 -30 48 -60 84 -34 42 -51 72 -48 83 3 13
-12 32 -49 64 -30 25 -63 63 -73 84 -11 21 -31 48 -45 60 -14 12 -23 25 -20
28 11 10 96 -25 117 -50 20 -22 93 -61 93 -50 0 13 -31 75 -43 85 -8 6 -18 24
-22 38 -9 39 -42 81 -76 99 -17 8 -38 28 -47 44 -25 40 -116 106 -167 120 -42
12 -64 33 -45 45 5 3 19 1 31 -5 36 -20 47 5 15 32 -16 13 -40 36 -54 52 -92
101 -122 126 -145 121 -12 -3 -31 0 -41 8 -19 14 -19 15 3 26 16 9 26 9 36 1
22 -18 25 3 4 28 -19 25 -104 62 -140 62 -13 0 -19 -6 -17 -17 2 -13 -5 -19
-24 -21 -21 -3 -28 -10 -35 -40 -8 -33 -12 -37 -39 -35 l-29 2 28 -24 c22 -20
32 -23 53 -15 33 13 34 13 34 -4 0 -32 -154 -24 -173 9 -25 46 -140 188 -191
237 -33 32 -57 60 -53 64 3 3 21 10 39 14 18 4 34 8 35 9 0 1 46 -15 101 -34z
m1258 -26 c3 -5 16 -9 30 -9 21 0 24 -4 24 -39 0 -41 -20 -67 -44 -58 -14 6
-66 96 -66 115 0 11 48 3 56 -9z m-3411 -29 c3 -6 -1 -7 -9 -4 -18 7 -21 14
-7 14 6 0 13 -4 16 -10z m3100 -240 c85 -74 107 -108 86 -134 -10 -12 -18 -13
-33 -5 -23 13 -20 5 19 -47 13 -18 35 -60 48 -94 13 -34 32 -68 41 -74 9 -7
14 -19 13 -27 -2 -7 3 -25 10 -37 20 -38 8 -67 -29 -66 -38 1 -51 13 -23 20
20 6 18 11 -38 84 -32 43 -59 82 -59 87 0 6 -11 22 -26 38 -14 15 -23 30 -20
32 3 3 -6 22 -19 42 -14 19 -25 41 -25 48 0 7 -4 13 -9 13 -5 0 -16 16 -25 35
-9 19 -21 37 -27 40 -7 5 -7 11 0 19 7 8 7 24 1 46 -21 73 16 67 115 -20z
m-550 -16 c6 -11 15 -19 20 -17 15 5 42 -46 50 -94 4 -24 14 -47 23 -53 14 -8
11 -9 -13 -10 -19 0 -48 13 -80 38 -43 33 -50 43 -53 77 -2 22 -8 44 -13 50
-14 14 -11 23 9 28 29 8 46 3 57 -19z m865 -231 c19 -26 40 -51 46 -57 6 -6
16 -21 23 -34 13 -24 19 -26 41 -12 12 7 12 12 2 22 -6 6 -12 19 -12 27 0 10
7 8 25 -9 14 -13 25 -31 25 -41 0 -9 7 -22 15 -29 20 -17 20 -64 1 -57 -10 4
-16 -2 -18 -21 -2 -22 -9 -28 -34 -30 -27 -3 -36 3 -63 40 -24 32 -30 49 -26
69 5 21 -1 36 -27 65 -18 22 -36 41 -39 44 -3 3 -8 12 -12 20 -4 8 -19 32 -33
54 l-26 38 39 -22 c21 -12 54 -42 73 -67z m-4173 -16 c-1 -17 -5 -31 -9 -29
-5 1 -15 2 -23 2 -8 0 -15 5 -15 10 0 6 6 9 13 8 7 -2 13 9 15 25 5 38 21 25
19 -16z m3278 3 c33 -35 24 -57 -19 -46 -26 6 -44 45 -31 65 10 17 19 13 50
-19z m-3191 -51 c-3 -5 -10 -7 -15 -3 -5 3 -7 10 -3 15 3 5 10 7 15 3 5 -3 7
-10 3 -15z m3377 -58 c12 -17 36 -35 53 -41 93 -35 106 -43 106 -66 l0 -24
-46 23 c-26 12 -63 37 -82 55 -20 17 -43 32 -51 32 -16 0 -51 28 -51 42 0 21
51 6 71 -21z m-1195 -267 c-4 -9 -9 -15 -11 -12 -3 3 -3 13 1 22 4 9 9 15 11
12 3 -3 3 -13 -1 -22z m0 -125 c1 -39 -3 -58 -10 -56 -6 2 -11 9 -10 15 1 7 2
35 3 64 2 70 16 51 17 -23z m-16 -109 c0 -5 -5 -10 -11 -10 -5 0 -7 5 -4 10 3
6 8 10 11 10 2 0 4 -4 4 -10z m0 -50 c0 -5 -4 -10 -10 -10 -5 0 -10 5 -10 10
0 6 5 10 10 10 6 0 10 -4 10 -10z m-2952 -82 c16 -16 15 -34 -4 -63 -15 -23
-18 -24 -44 -10 -15 8 -30 11 -34 8 -3 -4 -6 -1 -6 5 0 7 5 12 10 12 6 0 10 7
10 16 0 17 27 43 46 44 5 0 15 -5 22 -12z m118 -39 c10 -17 -13 -36 -27 -22
-12 12 -4 33 11 33 5 0 12 -5 16 -11z m2895 -86 c-9 -15 -10 -12 -10 17 0 29
1 32 10 18 7 -12 7 -24 0 -35z m1149 -56 c0 -5 -4 -5 -10 -2 -5 3 -10 14 -10
23 0 15 2 15 10 2 5 -8 10 -19 10 -23z m728 -10 c2 -15 -1 -27 -7 -27 -14 0
-29 32 -24 48 8 21 28 8 31 -21z m-5344 17 c9 -3 16 -13 16 -21 0 -10 -6 -13
-17 -8 -10 3 -30 9 -45 12 -16 3 -28 9 -28 14 0 10 50 12 74 3z m5362 -110 c9
-36 -8 -49 -36 -26 -27 22 -22 52 9 52 14 0 23 -9 27 -26z m14 -164 c0 -34
-16 -39 -36 -12 -21 26 -16 42 11 42 21 0 25 -5 25 -30z m-5970 -250 c0 -31
22 -50 60 -50 13 0 20 -5 17 -12 -3 -9 -27 -12 -86 -10 -59 2 -81 0 -81 -9 0
-7 -10 -23 -22 -37 l-23 -24 30 7 c17 4 34 12 40 16 5 5 22 9 37 9 21 0 28 -5
28 -20 0 -10 7 -23 16 -28 13 -7 5 -12 -32 -21 -27 -7 -56 -18 -64 -25 -23
-20 -70 -29 -70 -13 0 7 5 18 11 24 21 21 3 40 -31 35 -25 -3 -31 -1 -28 9 3
8 13 13 22 11 15 -3 17 2 12 25 -7 36 7 53 75 89 31 17 54 35 51 42 -2 7 5 12
17 12 17 0 21 -6 21 -30z m610 -104 c0 -7 -11 -18 -25 -24 -14 -6 -25 -17 -25
-23 0 -14 -101 -109 -117 -109 -13 0 -7 30 14 70 19 37 16 50 -12 50 -18 0
-25 5 -25 20 0 18 16 26 43 21 64 -10 77 -11 77 -2 0 11 38 19 58 13 6 -2 12
-10 12 -16z m40 -956 c12 -9 9 -16 -22 -45 -21 -20 -38 -42 -38 -51 0 -38 -68
-227 -122 -338 -21 -44 -38 -91 -38 -104 0 -36 -50 -130 -72 -135 -18 -5 -26
17 -9 27 15 9 57 97 79 166 57 172 91 279 101 316 6 22 22 54 36 70 14 16 23
34 21 41 -5 12 30 63 42 63 4 0 14 -5 22 -10z m143 -38 c7 -9 -28 -52 -42 -52
-17 0 -13 31 7 46 20 15 29 17 35 6z m-92 -204 c-19 -70 -49 -157 -92 -265 -5
-13 -14 -23 -20 -23 -7 0 -8 7 -4 18 4 9 16 44 27 77 11 33 24 69 29 80 4 11
20 56 34 100 35 110 35 109 41 102 4 -3 -3 -43 -15 -89z m270 71 c6 -12 13
-36 16 -53 2 -18 16 -42 33 -56 16 -15 33 -43 39 -65 5 -22 19 -65 31 -95 20
-52 20 -57 5 -92 -17 -42 -62 -71 -103 -66 -38 4 -39 30 -2 89 28 45 30 55 20
79 -20 48 -47 70 -78 64 -24 -5 -30 -1 -41 23 -7 15 -15 53 -18 83 -5 48 -2
59 18 83 29 32 64 35 80 6z m-576 -109 c12 -20 -6 -49 -38 -59 -18 -5 -60 -15
-94 -22 -63 -12 -77 -22 -47 -33 13 -5 14 -9 4 -21 -20 -24 -3 -30 33 -13 38
18 67 9 67 -21 0 -25 -19 -31 -96 -31 -50 0 -64 3 -64 15 0 8 -5 15 -11 15 -5
0 -7 5 -4 10 5 8 11 7 21 -1 11 -9 18 -9 26 -1 9 9 9 12 0 12 -7 0 -12 11 -12
25 0 38 -41 34 -58 -5 -12 -26 -11 -32 2 -46 9 -8 16 -18 16 -20 0 -3 -20 -13
-45 -24 -25 -11 -45 -23 -45 -28 0 -19 -73 -29 -109 -15 -32 13 -32 15 -16 33
27 30 14 45 -18 20 -16 -12 -30 -20 -33 -18 -2 3 4 31 14 63 20 64 46 85 152
127 88 34 340 62 355 38z m389 -248 c-4 -12 -10 -22 -15 -22 -11 0 -12 44 -2
54 12 11 23 -9 17 -32z m-199 -59 c-2 -27 1 -65 7 -86 14 -46 0 -68 -26 -41
-13 12 -16 27 -12 55 3 22 9 57 12 79 8 56 23 50 19 -7z m300 -132 c10 -17
-27 -28 -110 -33 -89 -6 -128 0 -117 19 12 19 216 31 227 14z m3365 -86 c-7
-9 -15 -13 -17 -11 -7 7 7 26 19 26 6 0 6 -6 -2 -15z m-3386 -184 c10 -16 -5
-41 -25 -41 -22 0 -23 4 -7 30 14 22 24 25 32 11z m1434 -43 c54 -14 54 -34 1
-41 -23 -3 -45 -11 -49 -17 -4 -6 -24 -15 -44 -20 -29 -6 -39 -5 -43 6 -3 8
-10 14 -17 13 -22 -3 -51 3 -39 7 7 3 9 12 6 20 -3 8 1 14 10 14 9 0 22 6 29
13 28 28 52 29 146 5z m2763 -197 c30 -5 80 -12 111 -16 l58 -6 -17 -27 c-25
-39 -26 -39 -104 -30 -78 9 -109 21 -109 43 0 7 -3 20 -6 29 -7 19 -5 19 67 7z
m589 -60 c0 -12 -20 -25 -27 -18 -7 7 6 27 18 27 5 0 9 -4 9 -9z m-5116 -109
c31 -45 32 -52 7 -52 -24 0 -39 19 -47 58 -9 43 7 41 40 -6z m4653 4 c7 -6
-75 -28 -85 -22 -4 2 -37 -2 -72 -9 -36 -7 -67 -12 -69 -9 -2 2 1 4 7 4 7 0
12 6 12 14 0 10 15 17 43 20 90 12 153 13 164 2z m-500 -12 c-3 -3 -12 -4 -19
-1 -8 3 -5 6 6 6 11 1 17 -2 13 -5z m318 -44 c-3 -5 -11 -10 -16 -10 -6 0 -7
5 -4 10 3 6 11 10 16 10 6 0 7 -4 4 -10z"/>
<path d="M4893 4388 c15 -38 73 -76 89 -60 14 14 1 32 -23 32 -13 0 -20 6 -18
18 3 35 -2 42 -31 42 -30 0 -30 0 -17 -32z"/>
<path d="M5978 3530 c6 -8 12 -21 12 -29 0 -8 8 -23 17 -33 13 -15 14 -21 5
-27 -10 -6 -9 -11 3 -21 8 -7 18 -10 22 -7 8 8 -17 67 -28 67 -5 0 -9 8 -9 19
0 10 -8 25 -17 32 -15 11 -16 11 -5 -1z"/>
<path d="M3855 6390 c3 -5 12 -10 20 -10 8 0 17 5 20 10 4 6 -5 10 -20 10 -15
0 -24 -4 -20 -10z"/>
<path d="M4035 6328 c-39 -166 -46 -198 -65 -298 -25 -132 -25 -148 0 -168 15
-13 21 -30 22 -67 2 -71 44 -135 111 -169 46 -23 71 -27 207 -36 150 -9 662
-35 885 -45 61 -3 146 -7 190 -10 44 -3 173 -7 286 -8 l207 -2 27 28 c15 15
34 27 41 27 7 0 23 15 36 32 12 18 31 41 40 50 10 10 18 27 18 38 0 10 5 30
12 44 12 28 -8 228 -42 421 -10 55 -21 130 -25 168 l-7 67 -963 0 -963 0 -17
-72z"/>
<path d="M6280 5880 c0 -5 5 -10 10 -10 6 0 10 5 10 10 0 6 -4 10 -10 10 -5 0
-10 -4 -10 -10z"/>
<path d="M2510 4330 c0 -5 5 -10 10 -10 6 0 10 5 10 10 0 6 -4 10 -10 10 -5 0
-10 -4 -10 -10z"/>
<path d="M2374 4169 c-3 -6 -14 -9 -24 -6 -13 3 -16 0 -13 -14 7 -26 22 -34
29 -15 3 9 12 16 19 16 20 0 27 17 10 24 -8 3 -17 0 -21 -5z"/>
<path d="M4110 3709 c0 -5 5 -7 10 -4 6 3 10 8 10 11 0 2 -4 4 -10 4 -5 0 -10
-5 -10 -11z"/>
<path d="M2030 3660 c0 -5 5 -10 11 -10 5 0 7 5 4 10 -3 6 -8 10 -11 10 -2 0
-4 -4 -4 -10z"/>
<path d="M4150 3645 c0 -5 5 -17 10 -25 5 -8 10 -10 10 -5 0 6 -5 17 -10 25
-5 8 -10 11 -10 5z"/>
<path d="M2046 3632 c-2 -4 -1 -23 3 -42 8 -37 7 -37 26 28 5 16 2 22 -9 22
-8 0 -17 -3 -20 -8z"/>
<path d="M4434 3033 c-8 -9 -13 -22 -10 -30 5 -13 11 -52 21 -138 4 -33 5 -35
15 -35 20 0 74 180 58 195 -3 3 -19 10 -37 15 -24 6 -35 5 -47 -7z"/>
<path d="M3445 3006 c-30 -17 -55 -36 -55 -43 0 -7 -7 -13 -16 -13 -11 0 -14
-5 -9 -17 4 -10 12 -31 17 -46 12 -33 30 -31 38 4 9 37 32 32 65 -14 24 -33
39 -43 70 -48 61 -11 95 0 114 34 9 16 24 39 33 51 l18 21 23 -25 c17 -19 34
-26 70 -28 54 -3 59 7 21 45 -14 14 -22 28 -19 31 3 4 10 0 15 -8 5 -8 13 -11
17 -6 12 12 -53 59 -101 73 -50 15 -98 17 -76 4 8 -6 18 -7 22 -5 4 3 8 1 8
-4 0 -5 -32 -7 -72 -5 -94 6 -100 8 -58 21 35 11 34 11 -17 10 -38 -1 -68 -10
-108 -32z m345 -36 c0 -5 -2 -10 -4 -10 -3 0 -8 5 -11 10 -3 6 -1 10 4 10 6 0
11 -4 11 -10z m-188 -35 c-3 -12 -63 -7 -77 6 -7 7 6 9 35 7 25 -2 44 -7 42
-13z"/>
<path d="M2620 3018 c-25 -5 -49 -14 -54 -19 -6 -5 -18 -9 -28 -9 -24 0 -88
-66 -88 -90 0 -15 7 -20 28 -21 62 -2 98 4 115 19 17 15 19 15 28 0 26 -47 61
-77 98 -83 58 -10 105 14 127 64 20 46 35 50 64 21 24 -24 30 -25 30 -6 0 8 5
16 12 18 21 7 -69 94 -111 106 -45 14 -158 14 -221 0z"/>
<path d="M1884 2997 c-2 -7 10 -39 28 -72 l32 -60 9 49 c7 43 5 51 -14 72 -25
26 -47 31 -55 11z"/>
<path d="M1856 2880 c9 -63 21 -90 39 -90 8 0 15 2 15 4 0 12 -27 76 -42 101
l-19 30 7 -45z"/>
<path d="M4304 2855 c-9 -23 3 -32 36 -27 34 5 39 17 11 32 -27 14 -41 13 -47
-5z"/>
<path d="M2045 2810 c3 -5 13 -10 21 -10 8 0 14 5 14 10 0 6 -9 10 -21 10 -11
0 -17 -4 -14 -10z"/>
<path d="M4383 2547 c-3 -5 -2 -11 1 -14 3 -4 0 -14 -8 -22 -9 -10 -12 -22 -7
-29 18 -29 81 30 81 75 0 7 -62 -2 -67 -10z"/>
<path d="M2038 2459 c-36 -14 -39 -37 -10 -81 21 -33 28 -37 75 -40 29 -2 63
0 76 4 24 9 23 10 -34 68 -63 63 -64 64 -107 49z"/>
<path d="M4334 2437 c-3 -8 -23 -27 -46 -43 -68 -49 -78 -62 -78 -99 0 -59 42
-41 77 33 9 20 20 39 23 42 4 3 9 12 13 20 4 8 14 25 23 38 10 14 12 22 5 22
-6 0 -14 -6 -17 -13z"/>
<path d="M3324 2406 c-18 -14 -18 -15 8 -21 35 -9 53 2 37 21 -14 18 -20 18
-45 0z"/>
<path d="M3035 2399 c-9 -14 -7 -15 45 -23 l45 -6 -30 20 c-34 22 -51 25 -60
9z"/>
<path d="M2175 2273 c-16 -9 -34 -22 -38 -30 -5 -8 -18 -13 -30 -11 -32 4 -51
-10 -37 -27 6 -8 18 -11 26 -8 8 3 22 -4 32 -16 13 -17 33 -23 84 -28 36 -3
74 -3 83 1 16 6 16 8 1 31 -9 13 -16 37 -16 53 0 52 -45 67 -105 35z"/>
<path d="M2883 2093 c-12 -4 -38 -81 -30 -89 2 -2 19 2 38 10 41 17 57 12 144
-49 36 -26 73 -45 82 -43 22 4 17 23 -6 23 -26 1 -51 24 -51 46 0 22 3 23 50
8 67 -20 181 -18 309 6 14 3 20 2 12 -1 -8 -4 -24 -18 -36 -32 -12 -14 -37
-30 -56 -36 -35 -11 -54 -46 -24 -46 10 0 13 5 9 12 -5 8 0 9 16 5 30 -8 81
20 145 78 55 50 53 49 89 35 15 -5 26 -6 26 0 0 24 -20 57 -42 69 -22 11 -30
10 -66 -8 -36 -19 -49 -20 -109 -12 -76 10 -246 8 -338 -3 -49 -6 -68 -4 -105
12 -25 10 -51 17 -57 15z"/>
<path d="M3155 1930 c3 -5 8 -10 11 -10 2 0 4 5 4 10 0 6 -5 10 -11 10 -5 0
-7 -4 -4 -10z"/>
<path d="M3180 1889 c20 -8 22 -12 10 -19 -8 -5 -23 -10 -33 -10 -11 0 -17 -6
-15 -12 5 -15 124 -23 178 -12 l35 7 -30 9 c-16 5 -46 9 -66 9 -24 -1 -41 5
-54 19 -10 11 -25 20 -34 19 -9 0 -6 -4 9 -10z"/>
<path d="M2483 1834 c0 -17 72 -94 87 -94 14 0 -40 89 -60 100 -25 13 -27 13
-27 -6z"/>
<path d="M3187 1521 c-14 -5 -10 -11 25 -27 39 -19 51 -20 126 -11 99 12 106
31 11 34 -35 1 -82 4 -104 6 -22 3 -48 2 -58 -2z"/>
<path d="M4170 710 c0 -5 5 -10 10 -10 6 0 10 5 10 10 0 6 -4 10 -10 10 -5 0
-10 -4 -10 -10z"/>
<path d="M0 631 c0 -25 25 -28 283 -37 131 -4 197 -2 197 4 0 6 -28 13 -62 16
-35 3 -136 13 -224 21 -202 19 -194 19 -194 -4z"/>
<path d="M3100 622 c0 -5 11 -14 25 -20 29 -14 44 2 16 17 -24 13 -41 14 -41
3z"/>
<path d="M3985 530 c3 -5 8 -10 11 -10 2 0 4 5 4 10 0 6 -5 10 -11 10 -5 0 -7
-4 -4 -10z"/>
<path d="M0 432 c0 -23 29 -28 205 -36 133 -7 125 3 -25 28 -172 29 -180 29
-180 8z"/>
<path d="M1095 359 c17 -5 86 -21 155 -35 69 -14 157 -35 195 -46 39 -11 108
-29 155 -40 125 -30 254 -71 348 -112 46 -20 91 -36 99 -36 8 0 27 -9 41 -21
81 -62 100 -69 183 -69 50 0 78 4 74 10 -11 18 -133 80 -256 130 -229 93 -529
166 -893 215 -123 17 -145 18 -101 4z"/>
<path d="M4260 344 c0 -16 66 -34 79 -21 25 25 12 38 -34 35 -25 -2 -45 -8
-45 -14z"/>
<path d="M4002 228 c2 -6 10 -14 16 -16 7 -2 10 2 6 12 -7 18 -28 22 -22 4z"/>
<path d="M4291 233 c-33 -7 -51 -27 -51 -58 0 -27 0 -27 54 -21 43 6 55 4 59
-8 9 -23 27 -20 27 4 0 13 -5 18 -15 14 -9 -4 -15 0 -15 9 0 8 6 17 13 20 8 3
7 10 -7 26 -19 21 -22 22 -65 14z m-26 -63 c3 -5 1 -10 -4 -10 -6 0 -11 5 -11
10 0 6 2 10 4 10 3 0 8 -4 11 -10z"/>
<path d="M1643 192 c-21 -13 -26 -61 -9 -87 19 -29 73 -35 83 -9 14 36 -46
113 -74 96z"/>
<path d="M3600 181 c0 -39 61 -70 73 -37 4 9 -6 19 -26 27 -18 7 -35 18 -39
23 -4 6 -8 0 -8 -13z"/>
<path d="M4106 99 c-28 -31 -46 -61 -46 -75 0 -23 3 -24 58 -24 63 0 92 18 92
56 -1 18 -1 18 -11 1 -9 -16 -12 -16 -32 -2 -12 8 -32 15 -46 15 l-24 0 23 25
c13 14 34 25 46 25 28 0 40 16 18 24 -26 10 -31 8 -78 -45z"/>
</g>
</svg>
