<?xml version="1.0" standalone="no"?>
<!DOCTYPE svg PUBLIC "-//W3C//DTD SVG 20010904//EN"
 "http://www.w3.org/TR/2001/REC-SVG-20010904/DTD/svg10.dtd">
<svg version="1.0" xmlns="http://www.w3.org/2000/svg"
 width="640.000000pt" height="640.000000pt" viewBox="0 0 640.000000 640.000000"
 preserveAspectRatio="xMidYMid meet">
<metadata>
Created by potrace 1.14, written by Peter Selinger 2001-2017
</metadata>
<g transform="translate(0.000000,640.000000) scale(0.100000,-0.100000)"
fill="#000000" stroke="none">
<path d="M0 4375 c0 -1309 3 -2025 10 -2025 6 0 6 -9 0 -26 -13 -33 -14 -1274
-1 -1274 5 0 11 7 15 15 4 11 13 14 31 9 14 -3 25 -2 25 3 0 9 57 42 160 94
77 39 344 75 374 50 18 -15 3 -67 -22 -73 -15 -4 -23 -23 -48 -120 -6 -22 -22
-26 -120 -32 -93 -6 -117 -13 -110 -32 3 -9 -1 -14 -11 -14 -14 0 -14 -2 3
-15 18 -14 18 -14 -11 -15 -125 -5 -156 -2 -174 14 -16 15 -25 16 -57 7 -21
-6 -40 -8 -43 -6 -2 3 1 5 8 5 8 0 11 7 7 15 -3 9 1 18 9 21 8 4 15 19 15 35
0 21 -4 27 -15 23 -8 -4 -15 -12 -15 -20 0 -8 -7 -14 -15 -14 -13 0 -15 -23
-15 -149 l0 -148 34 -6 c19 -3 45 -4 58 -2 12 2 50 6 83 10 33 4 114 23 180
43 193 58 290 49 464 -47 l51 -28 -72 -28 c-147 -56 -358 -191 -506 -322 -45
-40 -90 -73 -100 -73 -9 0 -56 6 -104 14 l-88 13 0 -28 c0 -26 3 -27 63 -34
34 -4 68 -10 75 -14 17 -10 -93 -131 -119 -131 -15 0 -19 -7 -19 -35 0 -37 14
-44 50 -25 13 7 21 7 25 0 10 -16 35 -12 62 10 14 11 39 20 54 20 33 0 39 17
8 22 -19 3 -17 7 21 51 58 66 68 70 137 53 176 -43 286 -95 308 -144 8 -18 18
-22 52 -22 44 0 58 14 25 22 -20 6 -49 88 -37 107 11 19 22 12 50 -31 15 -24
38 -53 52 -64 l25 -21 86 30 c48 16 104 29 125 30 20 0 37 4 37 8 0 5 -6 9
-14 9 -7 0 -27 7 -42 15 -20 11 -43 14 -75 10 -34 -5 -49 -3 -58 9 -11 13
-105 33 -141 29 -8 -1 -44 6 -80 16 -36 10 -123 27 -193 36 -70 10 -127 21
-127 25 0 26 242 198 376 267 123 64 199 85 282 81 39 -1 67 1 63 5 -12 12
-110 36 -113 27 -2 -4 -29 -10 -60 -13 -54 -5 -56 -5 -39 12 10 10 25 20 33
24 20 7 221 -32 229 -45 3 -5 9 -3 12 6 5 13 12 14 33 6 15 -6 76 -15 137 -19
98 -8 112 -7 124 7 7 10 13 14 13 10 0 -3 21 0 47 8 44 13 49 13 61 -3 7 -10
10 -28 7 -40 -4 -18 1 -23 31 -33 19 -7 45 -9 58 -6 13 3 38 -1 55 -10 23 -12
45 -14 78 -9 30 4 43 3 39 -4 -4 -6 4 -13 18 -17 27 -6 75 21 76 43 0 21 37
33 102 33 114 -1 323 -58 288 -80 -9 -6 -7 -11 10 -20 20 -11 21 -10 15 10 -7
21 -6 22 84 15 102 -8 165 -26 169 -47 4 -21 -14 -32 -83 -52 -33 -9 -75 -24
-93 -32 -29 -12 -32 -17 -21 -30 20 -24 125 -74 155 -74 15 0 24 3 21 7 -4 3
11 19 34 36 22 16 43 27 46 23 9 -8 -16 -35 -49 -52 -32 -17 -34 -40 -4 -58
10 -6 29 -21 42 -34 16 -15 35 -22 61 -22 43 0 68 -18 132 -97 l43 -53 333 0
333 0 16 24 c26 41 38 114 25 155 -17 53 -64 98 -111 106 -32 6 -42 13 -58 45
-11 21 -24 41 -30 45 -5 3 -10 20 -10 36 0 17 -6 32 -15 35 -8 4 -15 12 -15
19 0 15 -56 65 -73 65 -6 0 -21 9 -33 21 -18 17 -23 18 -36 6 -9 -9 -26 -12
-47 -9 -18 2 -56 -1 -85 -8 -43 -10 -58 -9 -96 4 -25 9 -53 16 -62 16 -10 0
-18 5 -18 10 0 6 -11 10 -24 10 -13 0 -29 7 -36 15 -7 9 -22 12 -40 9 -22 -5
-29 -2 -33 12 -4 15 -5 16 -6 3 -1 -12 -15 -19 -46 -23 -25 -4 -45 -12 -45
-17 0 -6 -8 -5 -21 1 -11 7 -27 9 -35 6 -8 -3 -21 -3 -29 0 -13 5 -13 9 -3 22
7 9 8 13 2 9 -6 -3 -19 0 -30 7 -11 9 -31 12 -51 9 -18 -3 -38 -1 -45 4 -15
11 -73 -8 -62 -20 4 -4 -6 -7 -22 -7 -17 0 -35 5 -41 11 -5 5 -43 12 -82 14
-40 2 -78 8 -84 13 -7 5 -30 13 -52 17 -54 9 -76 23 -73 43 3 14 -6 17 -52 19
-30 1 -73 6 -95 12 -22 5 -71 17 -110 25 -38 9 -77 19 -85 22 -8 3 -30 8 -48
10 -19 2 -52 14 -75 25 -41 21 -181 155 -203 194 -16 27 -29 12 -14 -16 10
-18 10 -25 -1 -33 -8 -7 -19 -20 -25 -31 -33 -60 -159 -59 -138 1 4 11 18 34
31 52 18 24 23 40 18 61 -9 41 -41 71 -75 71 -37 0 -55 31 -63 110 -6 49 -4
59 18 84 20 23 30 28 59 24 l35 -4 -19 32 c-11 17 -20 38 -20 46 0 18 168 198
201 216 14 7 33 26 44 42 12 18 55 49 108 76 48 26 87 50 88 53 0 3 2 29 4 56
11 158 39 222 113 256 26 12 60 28 75 36 23 12 39 13 97 3 38 -6 73 -9 78 -6
11 6 9 18 -41 241 -20 88 -43 196 -52 240 -9 44 -20 96 -25 115 -5 19 -14 62
-20 95 -7 33 -19 68 -27 77 -8 9 -18 44 -22 78 l-7 61 42 45 c52 54 86 59 109
14 9 -17 20 -28 25 -25 5 3 26 -10 47 -30 36 -34 63 -45 63 -25 0 6 4 10 9 10
6 0 9 -12 8 -26 -1 -15 4 -29 11 -31 7 -3 12 3 12 14 0 21 -28 103 -40 118
-10 13 -19 53 -35 160 -3 24 -14 47 -27 56 -11 9 -18 21 -14 27 3 6 2 13 -3
16 -5 3 -14 36 -21 73 -9 49 -20 76 -40 98 l-28 30 13 80 c7 43 18 81 24 83 6
2 18 10 26 18 8 8 18 16 22 17 12 3 4 39 -12 57 -8 9 -12 25 -9 37 8 30 -12
37 -31 11 -17 -23 -17 -23 -10 9 3 18 2 34 -4 38 -15 9 -14 52 2 62 7 4 19 23
26 41 8 17 17 32 21 32 10 0 22 -48 15 -59 -2 -5 2 -14 11 -22 12 -10 18 -9
32 6 16 17 16 17 -6 12 -12 -3 -20 -1 -16 4 3 5 19 8 36 6 24 -1 31 2 34 17 8
50 17 72 45 103 16 19 29 39 29 46 0 17 50 54 84 63 14 3 26 10 26 14 0 5 9
12 20 15 11 3 27 13 35 21 8 9 15 11 15 5 0 -21 39 6 116 78 50 47 86 74 101
74 12 0 21 5 20 11 -1 7 11 10 31 8 27 -3 35 1 39 17 6 22 29 35 38 21 4 -6
-1 -10 -9 -10 -21 0 -21 -26 0 -34 23 -9 35 2 32 27 -2 16 2 22 15 21 59 -3
65 -5 70 -26 2 -13 7 -30 11 -38 5 -11 -1 -15 -21 -17 -34 -2 -54 -29 -46 -61
5 -20 3 -24 -10 -19 -25 9 -28 -19 -3 -32 12 -7 28 -28 35 -47 13 -37 22 -41
43 -21 16 17 98 29 98 16 0 -6 16 -17 35 -24 19 -8 39 -24 45 -34 5 -11 20
-21 32 -23 12 -2 28 -16 37 -35 10 -21 23 -33 37 -33 11 0 28 -8 38 -18 14
-16 21 -17 51 -8 19 6 35 15 35 19 0 5 9 6 19 2 14 -4 21 0 26 14 8 26 35 16
35 -14 0 -12 9 -30 20 -40 18 -16 20 -16 20 -2 0 20 16 23 23 5 3 -9 15 -1 34
20 16 17 36 32 45 32 9 0 20 5 23 10 3 6 17 10 31 10 15 0 24 6 24 15 0 25 36
0 48 -33 11 -33 52 -42 52 -11 0 10 7 19 15 19 11 0 15 11 15 37 0 28 3 34 12
25 7 -7 17 -8 30 -1 12 6 18 6 18 -1 0 -5 5 -10 10 -10 6 0 19 -9 30 -20 20
-20 56 -17 43 3 -4 6 -6 26 -5 44 2 18 -2 33 -8 33 -5 0 -10 9 -10 20 0 15 7
20 25 20 15 0 25 6 25 14 0 29 17 24 64 -16 38 -33 50 -38 57 -27 5 8 9 9 9 3
0 -6 17 -23 39 -38 21 -15 52 -46 68 -69 17 -23 45 -57 62 -74 17 -18 31 -40
31 -49 0 -8 14 -49 31 -89 23 -55 29 -84 26 -112 -3 -21 -1 -76 5 -123 6 -47
11 -104 10 -127 -1 -23 2 -45 8 -48 6 -4 11 14 11 47 1 29 3 60 4 68 1 8 3 30
4 48 0 17 5 32 9 32 11 0 36 -168 37 -245 2 -129 4 -139 20 -125 9 7 18 11 20
8 11 -11 15 -139 5 -157 -7 -14 -7 -22 0 -26 8 -5 7 -11 0 -20 -7 -8 -9 -19
-5 -25 3 -5 1 -10 -5 -10 -7 0 -9 -8 -5 -20 4 -12 1 -28 -7 -37 -22 -28 45 -9
78 22 15 14 42 35 60 46 32 19 35 19 68 4 31 -15 45 -36 51 -75 1 -8 3 -19 4
-25 8 -29 -4 -97 -25 -153 -13 -36 -24 -71 -24 -78 0 -18 26 -18 33 0 3 8 25
40 50 72 24 33 46 67 50 76 8 23 -34 113 -72 153 -30 32 -81 161 -81 204 0 40
-60 250 -90 317 -68 147 -139 284 -178 340 -79 115 -292 331 -352 357 -14 6
-43 27 -64 45 -45 40 -210 121 -306 151 -170 53 -263 65 -495 65 -175 0 -231
-4 -275 -17 -31 -9 -83 -19 -115 -22 -55 -6 -95 -16 -200 -51 -22 -8 -62 -19
-90 -24 -53 -12 -216 -75 -294 -114 -25 -13 -75 -34 -111 -45 -35 -12 -76 -33
-91 -47 -15 -14 -46 -31 -70 -38 -42 -13 -44 -15 -55 -69 -6 -31 -7 -61 -3
-68 4 -7 10 -36 14 -64 10 -83 33 -173 81 -313 25 -74 43 -136 40 -139 -9 -9
-146 278 -146 305 0 14 -13 46 -29 71 -37 59 -43 99 -32 191 12 91 38 154 88
208 33 36 50 44 133 68 228 64 586 147 770 178 113 20 350 37 425 31 33 -2
103 -7 155 -10 377 -25 748 -219 1030 -540 152 -173 361 -546 435 -776 15 -46
40 -119 56 -162 33 -85 33 -68 -7 -217 -10 -35 -48 -74 -126 -124 l-66 -44 0
-49 c-1 -53 12 -76 46 -87 24 -8 37 -43 28 -74 -4 -12 1 -25 14 -37 12 -11 20
-31 20 -52 0 -39 23 -52 102 -60 45 -5 50 -3 97 39 38 34 63 48 114 60 61 15
71 15 203 -8 130 -21 221 -46 276 -74 52 -28 162 -125 225 -200 36 -44 69 -80
73 -80 3 0 13 15 22 33 38 80 101 127 196 148 41 8 59 7 108 -9 124 -41 174
-36 238 24 20 19 40 34 45 34 5 0 11 6 14 14 3 8 19 17 36 21 l31 7 0 400 c0
318 -3 403 -13 412 -7 6 -24 43 -37 81 -23 67 -86 186 -102 193 -5 2 -8 10 -8
17 0 8 -8 22 -18 32 -10 10 -18 29 -18 43 1 19 9 28 36 37 44 15 120 17 120 2
0 -15 -26 -39 -42 -39 -7 0 -19 -4 -25 -8 -16 -10 10 -86 67 -199 l39 -78 1
338 c0 228 -3 337 -10 337 -15 0 -58 97 -66 148 -4 29 -2 47 7 58 15 18 13 75
-3 85 -5 4 -8 15 -5 25 5 18 5 17 12 -2 5 -18 42 -44 60 -44 2 0 5 172 5 382
0 354 -1 387 -20 457 -12 42 -25 85 -30 96 -5 11 -19 54 -31 95 -12 41 -25 83
-30 92 -12 23 -12 48 0 48 5 0 11 -7 15 -15 6 -18 40 -21 34 -3 -4 12 -21 23
-52 33 -34 10 -8 18 54 16 l60 -2 0 34 c0 41 -15 56 -64 64 -27 4 -37 12 -45
35 -8 23 -7 30 5 35 9 3 19 2 23 -3 10 -15 61 -35 72 -29 17 11 9 77 -16 118
-26 44 -71 97 -83 97 -4 0 -41 -11 -84 -24 -44 -13 -82 -20 -89 -15 -19 12
-37 -8 -50 -54 -21 -80 -74 -144 -152 -184 -49 -25 -61 -27 -202 -28 -82 -1
-231 3 -330 10 -99 7 -243 15 -320 19 -77 3 -223 10 -325 15 -102 6 -252 13
-335 16 -297 13 -391 52 -457 190 -15 33 -28 69 -28 80 0 45 -11 62 -35 57
-19 -3 -27 2 -36 22 -7 14 -18 26 -25 26 -22 0 -26 -38 -10 -95 9 -30 15 -58
14 -62 -1 -4 3 -24 9 -44 7 -23 8 -54 3 -80 -6 -31 -5 -52 5 -71 13 -28 9 -74
-8 -85 -6 -4 -8 4 -5 21 7 33 0 37 -71 46 l-56 7 46 12 c38 10 47 17 46 34 0
12 3 56 7 98 8 71 7 78 -14 99 -12 12 -23 28 -24 35 -1 7 -8 21 -16 30 -8 10
-10 19 -4 23 5 4 15 23 21 43 11 31 10 40 -7 74 -23 45 -26 75 -7 75 9 0 9 2
-1 8 -7 5 -10 16 -7 24 4 9 2 19 -4 22 -6 4 -8 13 -4 22 3 8 -6 31 -20 52 -46
67 -67 116 -67 154 l0 38 -865 0 c-819 0 -864 -1 -859 -17 5 -15 4 -16 -5 -3
-9 13 -130 15 -966 18 l-955 2 0 -2025z m1977 1318 c73 -66 303 -383 303 -417
0 -25 -22 -86 -31 -86 -3 0 -24 -12 -45 -27 -21 -15 -78 -46 -125 -69 -48 -24
-108 -61 -133 -83 -26 -23 -53 -41 -59 -41 -32 1 -58 15 -63 35 -9 36 -84 43
-84 9 0 -8 -8 -15 -17 -16 -10 0 -22 -2 -28 -3 -5 -2 -19 -3 -30 -4 -23 -1
-57 -54 -49 -76 7 -18 107 -85 128 -85 13 0 14 -4 4 -27 -7 -16 -12 -29 -13
-29 0 -1 -10 -4 -21 -8 -17 -5 -34 5 -77 44 -30 27 -59 50 -64 50 -21 0 -143
154 -143 181 0 5 -7 9 -15 9 -38 0 -46 89 -15 158 59 129 204 288 390 426 109
82 148 94 187 59z m-1362 -13 c3 -5 21 -10 39 -10 44 0 70 -24 92 -85 9 -27
26 -59 36 -71 35 -39 13 -129 -37 -152 -29 -14 -31 -29 -8 -62 9 -13 18 -44
20 -69 8 -108 8 -287 0 -303 -4 -10 -4 -18 1 -18 11 0 3 -90 -9 -106 -5 -6 -7
-19 -3 -27 5 -13 0 -15 -32 -10 -27 4 -35 3 -30 -5 4 -7 14 -12 22 -12 8 0 14
-4 14 -10 0 -5 -19 -10 -42 -10 -31 0 -49 -6 -67 -24 -25 -24 -27 -24 -50 -7
l-24 18 23 42 c13 22 27 41 32 41 4 0 8 6 8 14 0 7 7 19 14 26 8 6 20 27 26
46 7 20 25 49 42 66 28 28 29 33 22 86 -3 32 -10 62 -15 68 -5 6 -6 14 -3 17
4 3 -1 23 -11 44 -22 47 -32 171 -16 201 6 12 18 22 25 22 25 0 25 28 0 57
-27 30 -64 99 -64 118 0 6 -11 22 -25 35 -32 30 -36 90 -6 90 11 0 23 -4 26
-10z m2932 -232 c-3 -8 -6 -5 -6 6 -1 11 2 17 5 13 3 -3 4 -12 1 -19z m3 -53
c0 -19 -4 -35 -9 -35 -15 0 -21 -44 -8 -56 19 -18 190 -64 214 -58 15 4 25 0
33 -16 6 -12 36 -32 65 -45 65 -29 178 -101 225 -144 19 -17 46 -39 60 -48 42
-27 114 -113 104 -123 -5 -5 -32 2 -69 20 -33 16 -63 30 -68 30 -4 0 -26 9
-50 19 -23 10 -62 26 -87 35 -94 36 -100 39 -100 69 0 21 -8 33 -34 48 -19 11
-42 31 -50 45 -9 13 -25 24 -35 24 -21 0 -39 -32 -22 -38 6 -2 11 -10 11 -17
0 -8 7 -21 15 -29 14 -14 12 -15 -22 -12 -21 2 -76 15 -123 28 -47 14 -132 36
-190 48 -134 28 -136 29 -132 75 3 25 0 35 -7 31 -6 -4 -11 -21 -11 -37 0 -27
-3 -30 -27 -27 -28 3 -28 4 -26 67 3 96 9 99 136 78 56 -9 116 -17 134 -17 34
0 37 4 48 78 8 51 25 56 25 7z m251 -38 c-17 -17 -24 -1 -10 25 12 21 14 21
17 4 2 -10 -1 -23 -7 -29z m-1 -31 c0 -3 -4 -8 -10 -11 -5 -3 -10 -1 -10 4 0
6 5 11 10 11 6 0 10 -2 10 -4z m705 -66 l40 -6 -36 -16 c-47 -21 -97 -82 -107
-132 -9 -50 -42 -67 -88 -45 -35 17 -41 40 -20 84 21 44 21 44 -16 77 -29 26
-30 29 -11 25 13 -3 26 -1 29 5 4 6 22 8 40 5 20 -4 45 0 62 8 15 8 36 12 47
8 11 -4 38 -9 60 -13z m480 -20 c-3 -5 -12 -7 -20 -3 -21 7 -19 13 6 13 11 0
18 -4 14 -10z m40 0 c3 -5 1 -10 -4 -10 -6 0 -11 5 -11 10 0 6 2 10 4 10 3 0
8 -4 11 -10z m771 -39 c137 -43 150 -45 212 -28 102 29 156 8 116 -46 -15 -20
-31 -26 -79 -32 -33 -4 -53 -10 -45 -12 43 -14 82 -36 86 -51 3 -9 12 -29 19
-43 8 -14 17 -46 21 -70 7 -40 6 -43 -9 -31 -14 12 -16 11 -14 -7 1 -12 5 -21
9 -21 10 0 6 -43 -6 -58 -5 -7 -9 -43 -8 -80 0 -46 -2 -61 -8 -47 -6 15 -9 6
-9 -32 -1 -35 -5 -53 -13 -54 -24 -2 -43 3 -50 14 -4 7 -8 9 -8 4 0 -11 -78
43 -84 59 -3 8 -15 14 -26 14 -11 0 -20 3 -20 8 0 4 -15 13 -32 21 -37 16 -97
57 -116 80 -13 16 -10 35 16 89 14 31 14 39 -6 100 -11 37 -24 78 -28 92 -3
14 -11 31 -17 38 -9 12 -104 60 -152 78 -14 5 4 10 55 16 41 4 79 10 85 12 21
9 54 5 111 -13z m-3726 -188 c-1 -20 -66 -124 -144 -227 -100 -131 -112 -144
-128 -128 -14 14 44 174 73 203 11 11 19 26 19 34 0 10 11 15 35 15 23 0 35 5
35 14 0 7 21 32 47 55 45 40 63 49 63 34z m2223 -35 c3 -11 10 -17 15 -14 12
7 22 -52 13 -77 -6 -17 -9 -16 -34 7 -29 27 -34 42 -14 49 9 3 9 7 1 18 -22
28 -24 47 -4 42 10 -3 21 -14 23 -25z m215 -88 c18 0 49 -7 68 -15 46 -19 45
-55 -3 -70 -18 -6 -43 -21 -56 -33 -24 -23 -71 -30 -82 -12 -3 5 0 22 8 37 17
34 13 50 -24 81 -46 38 -38 55 14 32 23 -11 57 -20 75 -20z m1237 -140 c30
-18 50 -45 47 -61 -1 -3 5 -29 12 -57 12 -44 12 -52 -2 -66 -15 -15 -15 -16 0
-16 23 0 44 -28 31 -41 -17 -17 -107 31 -111 59 -2 12 -7 22 -12 22 -21 0 -65
135 -54 165 8 21 51 19 89 -5z m-5186 -97 c-1 -17 -3 -21 -6 -10 -2 9 -10 17
-16 17 -7 0 -6 4 3 10 20 13 20 13 19 -17z m3891 0 c0 -5 -5 -15 -10 -23 -8
-12 -10 -11 -10 8 0 12 5 22 10 22 6 0 10 -3 10 -7z m1907 -75 c-3 -8 -6 -5
-6 6 -1 11 2 17 5 13 3 -3 4 -12 1 -19z m-1392 -51 c11 -1 30 2 42 6 16 6 23
3 28 -12 6 -20 52 -41 89 -41 12 0 35 -8 51 -18 17 -9 48 -23 69 -31 35 -12
41 -12 52 4 15 20 34 12 28 -13 -6 -24 27 -74 62 -92 16 -8 49 -28 73 -45 23
-16 50 -34 59 -40 9 -5 25 -20 35 -32 10 -13 23 -23 28 -23 5 0 20 -9 32 -21
12 -11 38 -28 57 -37 19 -9 42 -24 52 -34 23 -23 33 -23 35 2 1 11 -4 20 -13
20 -8 0 -14 9 -14 20 0 11 -4 20 -10 20 -5 0 -10 6 -10 14 0 8 -6 16 -13 19
-13 5 -15 67 -2 87 3 6 2 10 -4 10 -5 0 -9 9 -8 20 1 14 8 20 25 20 34 0 59
-16 130 -81 34 -33 67 -59 71 -59 5 0 12 -12 16 -27 3 -15 14 -33 23 -40 15
-11 15 -12 -5 -13 -19 0 -23 -6 -23 -34 0 -18 7 -39 15 -46 8 -7 14 -18 13
-24 -4 -20 22 -83 43 -101 12 -12 17 -25 13 -38 -3 -11 -2 -22 3 -26 6 -3 13
-33 17 -65 5 -50 4 -57 -7 -47 -8 6 -22 8 -31 5 -23 -9 -12 -42 27 -79 18 -16
31 -36 29 -45 -2 -11 0 -11 8 3 6 9 14 17 18 17 12 0 44 -59 38 -69 -9 -13 67
-134 86 -139 23 -6 23 -22 1 -22 -17 -1 -17 -1 0 -11 12 -7 16 -17 11 -31 -3
-11 -1 -39 4 -62 24 -95 44 -183 47 -208 2 -15 8 -35 13 -45 16 -31 24 -172
12 -209 -6 -19 -16 -34 -20 -34 -16 0 -30 37 -30 79 0 22 -4 42 -9 45 -5 3 -9
27 -9 53 0 27 -10 70 -21 96 -12 27 -21 54 -21 62 0 7 -6 18 -14 24 -11 9 -15
7 -19 -10 -6 -21 -8 -20 -54 18 -26 22 -61 48 -78 59 -37 23 -54 44 -55 67 0
9 -4 17 -9 17 -5 0 -13 9 -16 20 -3 11 -31 50 -61 86 -30 37 -54 75 -54 86 0
11 -29 49 -65 84 -36 36 -65 71 -65 78 0 7 -13 25 -30 41 -28 27 -40 55 -22
55 4 0 32 -9 62 -20 30 -11 56 -20 57 -20 2 0 3 -7 3 -15 0 -16 58 -50 68 -40
3 3 0 16 -8 28 -8 12 -25 44 -38 70 -13 26 -37 60 -54 75 -16 15 -63 60 -104
100 -41 39 -82 72 -90 72 -25 0 -104 42 -104 56 0 20 16 25 44 13 14 -7 28
-10 31 -7 7 6 -182 198 -194 198 -23 0 -20 -21 5 -30 20 -8 24 -14 16 -22 -8
-8 -8 -14 3 -22 8 -6 19 -33 24 -59 5 -31 16 -54 30 -63 11 -8 21 -19 21 -24
0 -13 -73 1 -93 18 -17 15 -39 29 -84 53 -25 13 -38 39 -25 48 19 13 20 40 2
56 -22 20 -18 35 11 35 16 0 18 5 13 25 -5 20 -1 26 20 35 43 16 27 44 -33 56
-17 4 -34 11 -37 15 -10 16 -22 9 -28 -16 -5 -19 -13 -25 -35 -25 -25 0 -30
-5 -35 -36 -4 -19 -9 -41 -12 -49 -4 -10 2 -11 32 -5 21 5 42 7 46 4 13 -8 9
-24 -6 -24 -7 0 -25 -9 -39 -20 -14 -11 -28 -16 -31 -11 -3 4 -28 11 -55 15
-47 6 -53 10 -91 64 -62 89 -73 102 -160 190 -45 46 -79 86 -75 90 3 3 27 9
53 12 37 5 64 0 127 -24 44 -16 89 -29 100 -29z m1180 3 c11 -4 28 -11 38 -14
13 -4 17 -16 17 -51 0 -39 -4 -47 -25 -57 -19 -8 -28 -8 -40 2 -29 24 -70 121
-57 134 6 6 33 1 67 -14z m193 -35 c-3 -3 -9 2 -12 12 -6 14 -5 15 5 6 7 -7
10 -15 7 -18z m42 -15 c0 -5 -2 -10 -4 -10 -3 0 -8 5 -11 10 -3 6 -1 10 4 10
6 0 11 -4 11 -10z m-743 -42 c13 -12 23 -25 23 -30 0 -16 -31 -8 -37 10 -4 9
-14 22 -22 29 -13 10 -13 12 -2 13 8 0 25 -10 38 -22z m-2813 -107 c-9 -11
-21 13 -16 32 6 22 6 22 12 -3 4 -14 6 -27 4 -29z m3323 -163 c-3 -8 -6 -5 -6
6 -1 11 2 17 5 13 3 -3 4 -12 1 -19z m-91 -81 c35 -20 74 -54 74 -64 0 -20 41
-46 75 -47 41 -1 109 -50 101 -72 -3 -8 4 -30 15 -50 21 -39 18 -84 -5 -65
-15 13 -26 4 -26 -21 0 -11 -7 -18 -18 -18 -10 0 -23 -5 -29 -11 -12 -12 -43
14 -43 37 0 8 -7 14 -15 14 -8 0 -15 6 -15 14 0 20 -42 96 -53 96 -5 0 -7 7
-3 15 3 9 -3 19 -14 25 -15 8 -19 18 -15 38 3 17 2 21 -2 10 -7 -15 -10 -15
-32 3 -19 16 -21 20 -7 25 21 8 20 16 -4 44 -33 37 -25 51 16 27z m-790 -103
c30 -26 52 -49 49 -52 -3 -3 -10 -1 -16 5 -7 7 -21 8 -33 4 -11 -4 -37 -7 -56
-7 -33 1 -35 3 -31 31 3 31 18 65 27 65 3 0 30 -21 60 -46z m174 -104 c22 -22
49 -40 61 -40 11 0 34 -9 50 -21 16 -11 33 -17 39 -14 11 7 14 -47 4 -58 -8
-8 -86 35 -131 72 -21 17 -44 31 -51 31 -17 0 -72 38 -72 50 0 7 12 12 53 19
4 0 25 -17 47 -39z m-140 -141 c0 -11 -4 -18 -10 -14 -5 3 -7 12 -3 20 7 21
13 19 13 -6z m-988 -300 c1 -13 5 -29 10 -35 5 -8 1 -13 -12 -17 -18 -5 -20 0
-20 46 0 36 3 48 11 40 5 -5 11 -21 11 -34z m1908 21 c0 -5 -10 -10 -22 -10
-19 0 -20 2 -8 10 19 13 30 13 30 0z m-4946 -215 c16 -33 17 -33 44 -19 48 25
72 14 72 -33 0 -12 -8 -14 -36 -10 -31 5 -34 4 -29 -14 8 -25 -20 -26 -34 -1
-9 14 -12 15 -20 3 -6 -9 -19 -12 -40 -8 -35 7 -35 8 -31 -70 1 -38 -2 -53
-12 -54 -34 -3 -84 4 -94 12 -6 5 -28 8 -50 8 -75 -1 -124 18 -94 36 15 9 12
35 -4 29 -10 -4 -12 2 -9 20 3 14 9 26 14 26 4 0 9 17 11 38 3 34 6 37 36 40
21 2 32 -1 32 -10 0 -10 3 -9 10 2 11 18 79 34 157 37 60 2 61 2 77 -32z
m-403 -54 c-10 -6 -11 -13 -2 -29 13 -25 15 -82 2 -82 -16 0 -28 25 -35 73 -7
47 -7 47 21 47 19 0 24 -3 14 -9z m4559 -124 c0 -5 -4 -5 -10 -2 -5 3 -10 14
-10 23 0 15 2 15 10 2 5 -8 10 -19 10 -23z m-4612 7 c37 -26 27 -37 -28 -30
-64 9 -80 15 -80 32 0 20 79 18 108 -2z m5347 -23 c0 -42 -21 -52 -36 -17 -14
31 -5 59 18 54 13 -2 18 -13 18 -37z m9 -74 c13 -20 12 -67 -1 -67 -3 0 -18 9
-34 21 -31 22 -36 38 -17 57 18 18 36 15 52 -11z m-5380 -25 c-9 -5 -8 -11 2
-20 8 -7 14 -8 14 -2 0 5 7 10 16 10 9 0 14 -7 12 -17 -5 -24 -67 -22 -80 2
-7 12 -18 15 -37 10 -21 -4 -28 -2 -28 10 0 12 12 15 56 15 31 0 51 -4 45 -8z
m164 -32 c29 -7 58 -7 72 -2 16 6 34 4 59 -9 31 -15 37 -15 58 -2 28 18 53 11
53 -16 0 -17 -4 -18 -29 -11 -20 5 -35 4 -47 -4 -11 -8 -46 -12 -105 -10 -73
2 -92 6 -111 23 -16 16 -24 18 -29 9 -5 -7 -11 -9 -15 -5 -9 9 15 37 32 37 7
0 35 -5 62 -10z m212 -60 c0 -5 -9 -10 -20 -10 -11 0 -20 5 -20 10 0 6 9 10
20 10 11 0 20 -4 20 -10z m5025 -43 c7 -26 2 -73 -8 -83 -3 -4 -12 5 -18 20
-7 14 -15 26 -19 26 -10 0 -21 41 -14 52 3 4 16 8 29 8 17 0 26 -7 30 -23z
m-5880 -177 c-3 -5 -18 -10 -33 -10 -21 0 -24 2 -12 10 20 13 53 13 45 0z
m-80 -81 c-8 -37 4 -49 53 -49 25 0 32 -4 32 -20 0 -27 -35 -34 -106 -21 -52
10 -61 9 -71 -6 -18 -24 -16 -37 5 -27 30 14 135 11 140 -5 3 -10 -2 -12 -22
-7 -31 8 -35 -7 -5 -20 20 -9 21 -11 5 -27 -10 -9 -30 -17 -46 -17 -26 0 -126
-46 -158 -72 -8 -7 -16 -8 -23 -1 -6 6 -1 22 16 47 32 48 32 54 -6 52 -37 -1
-52 22 -19 31 14 4 20 12 17 23 -7 26 9 46 61 82 26 17 53 40 60 50 8 10 26
18 43 18 29 0 30 -2 24 -31z m332 -104 c-7 -13 -21 -28 -32 -33 -11 -5 -32
-15 -46 -22 -15 -6 -34 -10 -44 -8 -30 5 -29 27 2 39 15 5 36 19 46 30 11 11
31 19 51 19 33 0 34 -1 23 -25z m267 1 c9 -14 8 -20 -4 -24 -8 -3 -23 -16 -35
-30 -39 -48 -120 -122 -132 -122 -21 0 -22 15 -2 59 24 54 24 61 0 61 -29 0
-42 22 -26 43 11 15 24 18 62 16 26 -1 55 0 63 4 50 19 59 19 74 -7z m-4 -116
c0 -5 -7 -10 -16 -10 -8 0 -13 -4 -9 -9 3 -5 1 -12 -4 -15 -11 -7 -9 13 2 32
10 14 27 16 27 2z m-180 -90 c0 -5 -5 -10 -11 -10 -5 0 -7 5 -4 10 3 6 8 10
11 10 2 0 4 -4 4 -10z m345 -719 c9 -16 -11 -21 -46 -14 -33 7 -33 7 -9 14 36
10 48 10 55 0z m-105 -41 c0 -5 -17 -28 -37 -50 -21 -22 -38 -46 -38 -53 -2
-38 -50 -172 -105 -297 -23 -52 -45 -111 -49 -130 -15 -70 -52 -140 -78 -146
-30 -8 -41 2 -25 24 13 18 60 114 86 175 9 21 16 48 16 60 0 13 4 27 8 32 5 6
23 57 41 115 43 140 51 161 73 189 10 13 18 29 18 35 0 27 32 56 61 56 16 0
29 -4 29 -10z m134 -38 c8 -13 -50 -65 -63 -58 -16 10 -14 27 6 48 17 19 48
24 57 10z m-89 -184 c-36 -128 -92 -287 -108 -306 -13 -16 -15 -111 -4 -163 9
-45 -13 -59 -43 -29 -31 31 -19 94 63 338 80 239 84 249 100 233 7 -7 4 -30
-8 -73z m74 -262 c7 -8 9 -25 5 -40 -14 -57 -51 -40 -40 18 7 39 17 44 35 22z
m-559 -36 c0 -5 -5 -10 -11 -10 -5 0 -7 5 -4 10 3 6 8 10 11 10 2 0 4 -4 4
-10z m-72 -159 c-2 -10 -14 -16 -33 -17 -17 0 -41 -4 -54 -8 -35 -12 -22 13
17 35 38 19 75 14 70 -10z m737 -41 c13 -20 -33 -33 -135 -38 -96 -4 -110 -3
-116 12 -4 9 -3 20 1 24 7 8 200 19 228 13 9 -2 19 -7 22 -11z m355 -40 c0 -5
-4 -10 -10 -10 -5 0 -10 5 -10 10 0 6 5 10 10 10 6 0 10 -4 10 -10z m150 -9
c0 -12 -28 -22 -34 -12 -3 5 -3 11 1 15 9 9 33 7 33 -3z m495 -101 c8 -13 -25
-13 -45 0 -12 8 -9 10 12 10 15 0 30 -4 33 -10z m75 -16 c0 -2 -9 -4 -21 -4
-11 0 -18 4 -14 10 5 8 35 3 35 -6z m320 -4 c0 -5 -2 -10 -4 -10 -3 0 -8 5
-11 10 -3 6 -1 10 4 10 6 0 11 -4 11 -10z m-665 -59 c-3 -6 -11 -11 -16 -11
-5 0 -4 6 3 14 14 16 24 13 13 -3z m-1108 3 c-3 -3 -12 -4 -19 -1 -8 3 -5 6 6
6 11 1 17 -2 13 -5z m-37 -24 c0 -5 -4 -10 -10 -10 -5 0 -10 5 -10 10 0 6 5
10 10 10 6 0 10 -4 10 -10z m2324 -49 c15 -6 10 -10 -23 -21 -33 -10 -44 -11
-54 -1 -23 23 32 40 77 22z m-264 -75 c0 -7 -81 -59 -85 -54 -10 10 5 33 28
44 22 11 57 17 57 10z m404 -45 c-7 -9 -24 13 -24 32 0 21 1 21 13 -3 8 -14
12 -27 11 -29z m256 -191 c0 -5 -9 -19 -20 -30 -20 -20 -21 -20 -41 -1 -12 11
-18 24 -14 30 8 14 75 14 75 1z m-3221 -17 c-27 -35 -53 -57 -70 -58 -10 -1
-15 4 -12 12 4 11 8 11 21 1 13 -11 14 -9 8 12 -6 19 -5 21 3 10 9 -13 11 -13
11 1 0 19 20 39 38 39 12 0 12 -3 1 -17z m3217 -69 c-3 -9 -6 -20 -6 -25 0 -5
-7 -9 -15 -9 -18 0 -19 4 -3 30 15 24 33 27 24 4z"/>
<path d="M1869 5527 c-19 -13 -63 -43 -99 -68 -36 -24 -91 -69 -123 -99 -82
-76 -217 -246 -217 -271 0 -27 76 -102 96 -95 16 6 25 25 54 121 12 39 28 84
36 102 7 17 14 35 14 41 0 29 127 132 163 132 7 0 21 6 32 13 11 7 40 19 65
26 53 16 110 40 110 47 0 13 -66 74 -80 74 -10 0 -32 -10 -51 -23z"/>
<path d="M1774 5245 c-5 -12 0 -23 13 -34 12 -9 26 -32 32 -53 13 -40 28 -50
60 -41 15 4 27 -1 36 -13 12 -16 14 -17 15 -3 0 9 -7 22 -15 29 -8 7 -15 18
-15 26 0 7 -9 15 -19 19 -10 3 -21 14 -24 25 -3 11 -13 23 -24 26 -10 4 -26
14 -35 22 -16 13 -18 13 -24 -3z"/>
<path d="M4900 4401 c0 -23 15 -43 42 -57 16 -9 32 -13 36 -10 8 8 -3 17 -25
20 -13 3 -17 10 -15 30 2 20 -2 26 -18 26 -11 0 -20 -4 -20 -9z"/>
<path d="M5679 4053 c-8 -10 -9 -14 -2 -10 6 4 14 3 18 -3 8 -13 25 -3 25 16
0 19 -24 18 -41 -3z"/>
<path d="M5757 4024 c3 -10 -2 -14 -18 -15 l-24 0 23 -11 c12 -6 22 -15 22
-19 0 -5 19 -30 43 -58 62 -72 77 -93 77 -111 0 -8 12 -23 25 -33 22 -16 25
-16 25 -2 0 9 7 18 15 21 11 5 12 9 2 25 -7 11 -18 17 -25 14 -8 -3 -10 0 -6
7 4 6 1 16 -7 22 -8 6 -20 22 -27 36 -47 89 -71 117 -114 133 -12 4 -15 2 -11
-9z"/>
<path d="M5965 3750 c-3 -5 -1 -10 4 -10 6 0 11 5 11 10 0 6 -2 10 -4 10 -3 0
-8 -4 -11 -10z"/>
<path d="M5981 3321 c-22 -14 -2 -32 27 -25 15 4 31 10 36 15 5 4 15 5 22 2 8
-3 14 0 14 6 0 14 -47 14 -55 1 -5 -7 -11 -8 -19 -1 -6 5 -18 6 -25 2z"/>
<path d="M985 3180 c3 -5 13 -10 21 -10 8 0 12 5 9 10 -3 6 -13 10 -21 10 -8
0 -12 -4 -9 -10z"/>
<path d="M3940 6380 c0 -11 2 -20 4 -20 2 0 6 9 9 20 3 11 1 20 -4 20 -5 0 -9
-9 -9 -20z"/>
<path d="M4036 6288 c-80 -332 -89 -393 -58 -421 13 -12 19 -33 21 -75 1 -43
6 -61 21 -74 11 -9 20 -23 20 -32 0 -19 78 -65 128 -76 20 -5 87 -11 147 -14
61 -4 189 -11 285 -16 375 -21 776 -39 1005 -46 72 -2 144 -6 160 -8 41 -6
114 13 137 36 10 10 25 18 32 18 8 0 28 17 43 38 15 20 33 43 40 49 40 43 38
182 -8 453 -28 166 -37 230 -38 258 l-1 22 -953 0 -953 0 -28 -112z"/>
<path d="M3901 6244 c-13 -41 -21 -77 -18 -80 3 -3 14 -1 25 5 11 6 27 8 35 5
10 -3 16 5 21 28 3 18 9 45 12 61 5 21 3 27 -10 27 -9 0 -19 7 -22 15 -11 27
-19 16 -43 -61z"/>
<path d="M3881 6134 c-1 -12 -8 -27 -16 -34 -16 -13 -12 -30 7 -30 6 0 8 3 5
7 -4 3 0 11 9 17 12 9 13 17 5 36 -9 23 -10 23 -10 4z"/>
<path d="M2650 4350 c0 -5 5 -10 10 -10 6 0 10 5 10 10 0 6 -4 10 -10 10 -5 0
-10 -4 -10 -10z"/>
<path d="M4185 3501 c-6 -11 9 -23 19 -14 9 9 7 23 -3 23 -6 0 -12 -4 -16 -9z"/>
<path d="M4186 3451 c-3 -5 1 -11 9 -14 9 -4 12 -1 8 9 -6 16 -10 17 -17 5z"/>
<path d="M4262 3303 c4 -13 2 -23 -3 -23 -4 0 -6 -7 -2 -16 3 -9 0 -20 -8 -24
-7 -5 -10 -12 -6 -16 12 -12 38 18 32 37 -4 11 0 19 11 21 14 2 13 6 -6 23
l-23 20 5 -22z"/>
<path d="M4240 3179 c0 -5 5 -7 10 -4 6 3 10 8 10 11 0 2 -4 4 -10 4 -5 0 -10
-5 -10 -11z"/>
<path d="M4436 3031 c-9 -14 17 -172 28 -168 13 4 44 95 45 133 1 25 -4 33
-21 38 -32 8 -46 7 -52 -3z"/>
<path d="M2703 3012 c-10 -10 -17 -11 -27 -3 -25 21 -144 -17 -180 -57 -13
-15 -16 -29 -12 -48 7 -25 10 -26 49 -20 23 4 49 13 58 21 23 21 26 19 49 -25
25 -49 45 -60 108 -60 44 0 54 4 76 31 14 17 26 39 26 50 0 12 9 21 25 25 32
8 32 34 -1 65 -32 30 -148 44 -171 21z m87 -87 c10 -12 10 -15 -3 -15 -9 0
-19 5 -23 11 -3 6 -15 9 -25 6 -11 -3 -19 -1 -19 4 0 15 57 10 70 -6z"/>
<path d="M3450 2999 c-19 -11 -41 -28 -47 -37 -15 -19 -17 -78 -3 -87 6 -3 10
3 10 14 0 11 9 25 19 31 17 9 24 4 47 -27 41 -56 53 -63 109 -63 57 0 81 18
105 78 15 38 23 40 54 10 12 -13 31 -24 42 -24 10 -1 27 -5 37 -9 27 -11 21
18 -10 47 -49 44 -126 70 -214 70 -43 0 -81 4 -84 9 -9 14 -27 11 -65 -12z
m156 -50 c24 -6 44 -16 44 -21 0 -6 -8 -7 -17 -4 -9 4 -20 1 -24 -6 -6 -9 -11
-9 -22 0 -8 7 -27 10 -46 6 -23 -5 -31 -3 -31 8 0 31 23 35 96 17z"/>
<path d="M1890 2995 c0 -11 34 -75 41 -75 16 0 17 45 2 62 -15 16 -43 25 -43
13z"/>
<path d="M1870 2839 c10 -34 17 -45 25 -38 8 8 -10 62 -23 67 -8 2 -8 -6 -2
-29z"/>
<path d="M4307 2854 c-15 -15 -6 -24 24 -24 20 0 29 4 27 13 -5 14 -40 21 -51
11z"/>
<path d="M4414 2552 c-18 -11 -46 -72 -34 -72 24 0 48 21 58 50 11 31 2 39
-24 22z"/>
<path d="M2039 2453 c-48 -12 -10 -84 50 -96 16 -3 39 -9 52 -12 13 -3 31 -1
39 5 12 8 6 18 -35 60 -47 48 -64 55 -106 43z"/>
<path d="M3040 2400 c0 -5 10 -10 23 -10 18 0 19 2 7 10 -19 13 -30 13 -30 0z"/>
<path d="M3330 2400 c0 -5 9 -10 21 -10 11 0 17 5 14 10 -3 6 -13 10 -21 10
-8 0 -14 -4 -14 -10z"/>
<path d="M4293 2387 c-4 -8 -21 -18 -38 -24 -26 -8 -30 -15 -33 -51 -2 -23 0
-42 3 -42 17 0 91 117 81 127 -2 3 -8 -2 -13 -10z"/>
<path d="M2178 2265 c-65 -36 -36 -100 50 -111 62 -8 90 7 58 31 -13 10 -17
22 -13 41 3 15 3 34 0 41 -7 17 -61 16 -95 -2z"/>
<path d="M3495 2074 c-23 -10 -53 -12 -123 -8 -60 4 -97 3 -105 -4 -9 -7 -33
-8 -73 -3 -33 5 -91 5 -129 1 -50 -5 -81 -3 -110 6 -52 18 -72 17 -79 -2 -12
-32 -7 -41 23 -36 17 2 50 -4 75 -13 38 -15 51 -16 75 -5 22 9 38 9 63 1 18
-6 49 -11 68 -11 74 0 187 7 229 15 42 8 43 7 36 -16 -5 -18 -4 -21 4 -9 6 8
11 11 11 7 0 -11 60 25 60 36 0 5 14 6 30 2 26 -6 30 -4 30 14 0 14 -9 25 -26
31 -14 6 -26 10 -27 9 -1 0 -15 -7 -32 -15z"/>
<path d="M3376 1935 c-3 -8 -2 -15 3 -15 5 0 14 7 21 15 10 12 10 15 -3 15 -8
0 -17 -7 -21 -15z"/>
<path d="M3270 1850 c-9 -6 -10 -10 -3 -10 6 0 15 5 18 10 8 12 4 12 -15 0z"/>
<path d="M2490 1827 c0 -17 38 -52 47 -44 9 10 -18 57 -34 57 -7 0 -13 -6 -13
-13z"/>
<path d="M6326 1781 c-3 -4 -24 -11 -46 -15 -22 -3 -40 -11 -40 -16 0 -6 -6
-9 -12 -7 -7 1 -12 -4 -10 -12 2 -9 -4 -12 -19 -8 -24 7 -59 -8 -72 -30 -5 -7
-13 -11 -18 -7 -5 3 -8 0 -7 -7 2 -6 -3 -14 -11 -17 -8 -2 -11 0 -7 6 8 13
-32 3 -59 -15 -11 -7 -27 -13 -36 -13 -9 0 -19 -6 -22 -14 -3 -7 -23 -16 -46
-20 -50 -8 -217 -105 -228 -132 -2 -7 -12 -10 -22 -7 -11 3 -27 -6 -43 -26
-14 -16 -28 -28 -30 -26 -7 7 -132 -35 -143 -48 -5 -7 -27 -13 -47 -14 -20 -1
-56 -11 -80 -22 -24 -11 -65 -27 -92 -36 -26 -8 -56 -20 -66 -25 -28 -15 -81
-23 -147 -21 -37 1 -63 -3 -63 -9 0 -5 -11 -10 -25 -10 -44 0 -102 -37 -144
-92 -89 -118 -111 -149 -111 -161 0 -7 -4 -17 -9 -22 -15 -15 -81 -149 -81
-163 0 -7 -7 -15 -15 -18 -8 -4 -15 -16 -15 -28 -1 -32 -24 -56 -54 -56 -14 0
-26 -5 -26 -10 0 -6 -12 -15 -27 -21 -87 -32 -205 -117 -181 -129 7 -4 67 -10
133 -14 66 -4 192 -13 280 -21 88 -8 194 -15 235 -15 81 0 120 -12 80 -25 -23
-7 -452 3 -474 11 -6 2 -141 9 -301 14 -159 6 -312 13 -340 16 -133 15 -310
85 -347 137 -12 17 -42 50 -67 73 -25 24 -75 71 -111 104 -58 55 -193 151
-290 207 -82 47 -397 136 -575 162 -38 5 -128 19 -200 31 -135 21 -397 54
-570 70 -55 6 -165 17 -245 25 -80 8 -164 14 -188 15 -41 0 -42 -1 -36 -27 4
-16 9 -31 13 -35 5 -5 149 -18 371 -33 121 -8 239 -20 565 -55 230 -26 488
-76 690 -136 118 -35 274 -102 303 -130 7 -8 26 -21 40 -28 27 -14 61 -47 166
-166 87 -97 171 -166 250 -204 149 -71 251 -86 591 -84 239 2 315 -4 315 -22
0 -5 -10 -12 -22 -16 -39 -12 9 -27 84 -26 38 1 68 -3 68 -8 0 -5 10 -9 23 -9
46 3 213 -14 230 -23 17 -9 24 -53 9 -62 -5 -3 -8 -27 -7 -53 2 -26 1 -56 -2
-65 -5 -21 -23 -24 -23 -4 0 20 -39 66 -57 66 -43 0 -223 -105 -223 -131 0
-14 17 -11 34 6 18 18 32 19 42 3 4 -6 3 -8 -4 -4 -6 4 -10 -1 -9 -13 0 -11 5
-17 9 -15 13 8 9 -21 -4 -34 -20 -20 -1 -14 36 12 56 37 163 79 183 71 14 -5
9 -10 -27 -24 -36 -13 -46 -22 -48 -43 l-3 -26 153 -1 153 -1 24 49 24 48 75
7 c111 9 154 8 150 -5 -5 -14 -67 -38 -141 -54 -25 -5 -26 -7 -12 -21 8 -9 22
-13 30 -10 8 3 17 1 20 -4 7 -11 914 -14 1014 -4 l61 7 0 880 c-1 870 -1 879
-20 874 -13 -3 -20 0 -20 9 0 15 -26 19 -34 5z m-96 -95 c0 -3 -4 -8 -10 -11
-5 -3 -10 -1 -10 4 0 6 5 11 10 11 6 0 10 -2 10 -4z m-70 -61 c0 -8 -4 -15
-10 -15 -5 0 -7 7 -4 15 4 8 8 15 10 15 2 0 4 -7 4 -15z m-702 -1338 c3 -17
-5 -18 -134 -12 -75 3 -140 7 -142 10 -5 5 31 9 55 6 6 -1 14 2 16 6 3 5 49 8
103 8 87 0 99 -2 102 -18z m-123 -32 c61 -8 117 -15 125 -15 13 -1 13 -2 -1
-13 -9 -7 -21 -22 -28 -35 -11 -21 -17 -22 -86 -17 -83 6 -125 18 -125 37 0 7
-3 23 -6 36 -7 26 -16 26 121 7z m554 -44 c11 -7 7 -13 -17 -25 -17 -9 -39
-16 -48 -16 -15 0 -14 4 6 25 25 27 37 30 59 16z m-129 -51 c0 -5 -9 -10 -21
-10 -11 0 -17 5 -14 10 3 6 13 10 21 10 8 0 14 -4 14 -10z m-400 -130 c0 -5
-4 -10 -10 -10 -5 0 -10 5 -10 10 0 6 5 10 10 10 6 0 10 -4 10 -10z"/>
<path d="M3210 1509 c0 -16 49 -30 68 -20 14 8 12 11 -13 16 -17 4 -36 8 -42
11 -7 2 -13 -1 -13 -7z"/>
<path d="M3318 1493 c7 -3 16 -2 19 1 4 3 -2 6 -13 5 -11 0 -14 -3 -6 -6z"/>
<path d="M1220 1256 c0 -14 5 -28 11 -31 15 -10 18 -4 12 28 -7 34 -23 36 -23
3z"/>
<path d="M4480 796 c0 -11 -11 -15 -40 -13 -22 1 -40 5 -40 9 0 4 -7 8 -15 8
-20 0 -57 -38 -50 -50 4 -6 0 -10 -8 -10 -8 0 -20 -13 -27 -29 -6 -16 -20 -31
-31 -34 -10 -3 -19 -12 -19 -21 0 -20 7 -20 44 -1 16 9 38 13 48 9 14 -4 21 0
25 16 5 18 11 21 37 16 19 -3 38 0 50 9 11 8 32 15 47 15 27 0 39 19 39 65 0
16 -7 21 -30 23 -21 2 -30 -2 -30 -12z m-33 -62 c-3 -3 -12 -4 -19 -1 -8 3 -5
6 6 6 11 1 17 -2 13 -5z"/>
<path d="M4210 649 c0 -7 -11 -9 -30 -5 -23 4 -30 2 -30 -10 0 -11 6 -14 23
-9 15 4 18 4 8 -3 -11 -8 -10 -12 5 -21 18 -10 17 -10 -4 -11 -13 0 -21 -4
-17 -9 3 -6 -10 -13 -30 -17 -19 -3 -35 -10 -35 -15 0 -12 16 -11 38 0 9 5 24
12 32 16 31 12 64 35 53 35 -7 0 -13 7 -13 15 0 8 4 15 9 15 5 0 11 7 15 15 3
9 0 15 -9 15 -8 0 -15 -5 -15 -11z"/>
<path d="M0 629 c0 -17 8 -19 68 -20 104 -1 240 -7 320 -13 44 -4 71 -3 68 3
-3 5 -48 12 -98 15 -94 7 -266 23 -325 31 -27 3 -33 0 -33 -16z"/>
<path d="M2330 640 c-18 -12 -2 -12 25 0 13 6 15 9 5 9 -8 0 -22 -4 -30 -9z"/>
<path d="M888 613 c6 -2 18 -2 25 0 6 3 1 5 -13 5 -14 0 -19 -2 -12 -5z"/>
<path d="M1498 563 c6 -2 18 -2 25 0 6 3 1 5 -13 5 -14 0 -19 -2 -12 -5z"/>
<path d="M1056 530 l-18 -35 22 21 c12 12 20 28 18 35 -3 9 -12 0 -22 -21z"/>
<path d="M0 430 c0 -11 36 -17 145 -25 97 -7 83 8 -22 24 -88 14 -123 14 -123
1z"/>
<path d="M2192 402 c4 -23 31 -26 44 -5 10 16 7 18 -18 20 -23 2 -29 -1 -26
-15z"/>
<path d="M2262 378 c6 -16 33 -22 56 -13 14 5 14 7 2 15 -22 14 -62 12 -58 -2z"/>
<path d="M1183 343 c9 -2 23 -2 30 0 6 3 -1 5 -18 5 -16 0 -22 -2 -12 -5z"/>
<path d="M1250 331 c8 -6 37 -13 65 -16 27 -4 73 -13 100 -21 28 -8 79 -24
115 -34 36 -11 108 -29 160 -41 52 -11 151 -43 220 -70 68 -27 132 -49 141
-49 10 0 30 -10 46 -23 15 -13 49 -36 76 -51 41 -23 56 -27 113 -24 l67 3 -74
42 c-41 23 -110 56 -154 73 -44 18 -102 41 -130 52 -44 18 -114 38 -325 93
-30 8 -80 19 -110 24 -30 6 -104 19 -165 30 -122 23 -169 27 -145 12z"/>
<path d="M4313 203 c-18 -7 -16 -23 2 -23 8 0 15 7 15 15 0 8 -1 15 -2 14 -2
0 -9 -3 -15 -6z"/>
<path d="M1631 172 c-11 -20 -5 -59 12 -79 15 -20 55 -15 67 7 12 22 8 33 -23
68 -25 27 -43 28 -56 4z m49 -53 c0 -6 -4 -7 -10 -4 -5 3 -10 11 -10 16 0 6 5
7 10 4 6 -3 10 -11 10 -16z"/>
<path d="M4276 175 c4 -8 8 -15 10 -15 2 0 4 7 4 15 0 8 -4 15 -10 15 -5 0 -7
-7 -4 -15z"/>
<path d="M4140 130 c-18 -12 -2 -12 25 0 13 6 15 9 5 9 -8 0 -22 -4 -30 -9z"/>
<path d="M1093 74 c4 -4 17 -9 29 -11 31 -5 33 -9 19 -40 -10 -21 -10 -24 1
-16 12 11 41 17 63 14 6 -1 3 -6 -5 -11 -10 -7 29 -10 120 -9 120 0 132 1 105
13 -63 27 -352 80 -332 60z"/>
<path d="M4078 49 c-10 -5 -18 -18 -18 -28 0 -15 9 -18 58 -18 51 0 71 8 72
29 0 8 -57 28 -79 28 -9 0 -24 -5 -33 -11z"/>
</g>
</svg>
