<?xml version="1.0" encoding="utf-8"?>
<!-- Generator: Adobe Illustrator 16.0.0, SVG Export Plug-In . SVG Version: 6.00 Build 0)  -->
<!DOCTYPE svg PUBLIC "-//W3C//DTD SVG 1.1//EN" "http://www.w3.org/Graphics/SVG/1.1/DTD/svg11.dtd">
<svg version="1.1" id="socialicious" xmlns="http://www.w3.org/2000/svg" xmlns:xlink="http://www.w3.org/1999/xlink" x="0px"
	 y="0px" width="100px" height="100px" viewBox="0 0 100 100" style="enable-background:new 0 0 100 100;" xml:space="preserve">
<style type="text/css">
<![CDATA[
	.st0{fill:#0077b5;}
	.st1{fill:#0077b5;}
	.st2{fill:#0077b5;}
	.st3{fill:#0077b5;}
	.st4{fill:#0077b5;}
	.st5{fill:#0077b5;}
	.st6{fill:#0077b5;}
	.st7{fill:#0077b5;}
	.st8{fill:#0077b5;}
	.st9{fill:#0077b5;}
	.st10{fill:#0077b5;}
	.st11{fill:#0077b5;}
	.st12{fill:#0077b5;}
	.st13{fill:#0077b5;}
	.st14{fill:#0077b5;}
	.st15{fill:url(#SVGID_1_);}
	.st16{fill:url(#SVGID_2_);}
	.st17{fill:#0077b5;}
	.st18{fill-rule:evenodd;clip-rule:evenodd;fill:#0077b5;}
	.st19{fill-rule:evenodd;clip-rule:evenodd;fill:#0077b5;}
	.st20{fill:#0077b5;}
	.st21{fill:#0077b5;}
	.st22{fill:#0077b5;}
	.st23{fill:#0077b5;}
	.st24{fill:#0077b5;}
	.st25{fill:#0077b5;}
	.st26{fill:#0077b5;}
	.st27{fill:#0077b5;}
	.st28{fill-rule:evenodd;clip-rule:evenodd;fill:#0077b5;}
	.st29{fill:#0077b5;}
	.st30{fill:#0077b5;}
	.st31{fill:#0077b5;}
	.st32{fill:#0077b5;}
	.st33{fill:#0077b5;}
	.st34{fill:#0077b5;}
	.st35{fill:#0077b5;}
	.st36{fill:#0077b5;}
	.st37{fill:#0077b5;}
	.st38{fill:url(#soundcloud_2_);}
	.st39{fill:#0077b5;}
	.st40{fill:#0077b5;}
]]>
</style>
<g id="linkedin">
	<path class="st19" d="M22.7,97.8V33.3H1.3v64.5H22.7L22.7,97.8z M12,24.5c7.5,0,12.1-5,12.1-11.1C24,7,19.5,2.2,12.1,2.2
		C4.8,2.2,0,7,0,13.4c0,6.2,4.6,11.1,11.8,11.1H12L12,24.5z"/>
	<path class="st19" d="M34.6,97.8H56v-36c0-1.9,0.1-3.9,0.7-5.2c1.5-3.9,5.1-7.8,11-7.8c7.8,0,10.9,5.9,10.9,14.6v34.5H100v-37
		c0-19.8-10.6-29-24.7-29c-11.6,0-16.6,6.5-19.5,10.9H56v-9.4H34.6C34.8,39.3,34.6,97.8,34.6,97.8L34.6,97.8z"/>
</g>
</svg>
