<svg xmlns="http://www.w3.org/2000/svg" width="26" height="23" viewBox="0 0 26 23">
  <path fill="#2C99F8" fill-rule="evenodd" d="M8.17680379,23.2916667 C17.9887813,23.2916667 23.3541934,14.9566518 23.3541934,7.72909819 C23.3541934,7.49235525 23.3494907,7.25668049 23.3391344,7.02207124 C24.3807037,6.24999518 25.2860332,5.2864988 26,4.18970144 C25.0442306,4.62532767 24.0156612,4.91858946 22.9366501,5.05082405 C24.0380212,4.37365611 24.8835489,3.30245399 25.2823932,2.02543434 C24.2517429,2.65194679 23.1103318,3.10730219 21.8950798,3.35310768 C20.9216304,2.28990262 19.5358167,1.625 18.0012822,1.625 C15.0554531,1.625 12.6665492,4.07453095 12.6665492,7.0940537 C12.6665492,7.52328066 12.7133492,7.94077909 12.8048709,8.34121254 C8.37130818,8.11246934 4.44006797,5.93593871 1.80936319,2.62635335 C1.35123805,3.43468768 1.08707636,4.37365611 1.08707636,5.37554266 C1.08707636,7.27320959 2.02880489,8.9485308 3.46089856,9.92855628 C2.58573089,9.90083005 1.76360233,9.65448957 1.04495462,9.24445768 C1.04416939,9.26740661 1.04416939,9.2897803 1.04416939,9.31430735 C1.04416939,11.9632548 2.88290821,14.1749773 5.32381215,14.6761867 C4.87556788,14.8014897 4.40392274,14.8686725 3.91719847,14.8686725 C3.57399505,14.8686725 3.23963163,14.8340362 2.91462908,14.7700311 C3.59375505,16.9433626 5.56301385,18.5248394 7.89783781,18.5690965 C6.07209898,20.0364674 3.77211676,20.9103867 1.27245283,20.9103867 C0.842407683,20.9103867 0.417564278,20.885305 0,20.834671 C2.36082395,22.3862905 5.16417131,23.2916667 8.17707949,23.2916667" transform="translate(0 -1)"/>
</svg>
