<svg xmlns="http://www.w3.org/2000/svg" width="26" height="26" viewBox="0 0 26 26">
  <path fill="#282B30" fill-rule="evenodd" d="M13,0 C5.8175,0 0,5.8175 0,13 C0,18.7525 3.72125,23.61125 8.88875,25.33375 C9.53875,25.4475 9.7825,25.0575 9.7825,24.71625 C9.7825,24.4075 9.76625,23.38375 9.76625,22.295 C6.5,22.89625 5.655,21.49875 5.395,20.7675 C5.24875,20.39375 4.615,19.24 4.0625,18.93125 C3.6075,18.6875 2.9575,18.08625 4.04625,18.07 C5.07,18.05375 5.80125,19.0125 6.045,19.4025 C7.215,21.36875 9.08375,20.81625 9.83125,20.475 C9.945,19.63 10.28625,19.06125 10.66,18.73625 C7.7675,18.41125 4.745,17.29 4.745,12.3175 C4.745,10.90375 5.24875,9.73375 6.0775,8.82375 C5.9475,8.49875 5.4925,7.16625 6.2075,5.37875 C6.2075,5.37875 7.29625,5.0375 9.7825,6.71125 C10.8225,6.41875 11.9275,6.2725 13.0325,6.2725 C14.1375,6.2725 15.2425,6.41875 16.2825,6.71125 C18.76875,5.02125 19.8575,5.37875 19.8575,5.37875 C20.5725,7.16625 20.1175,8.49875 19.9875,8.82375 C20.81625,9.73375 21.32,10.8875 21.32,12.3175 C21.32,17.30625 18.28125,18.41125 15.38875,18.73625 C15.86,19.1425 16.26625,19.9225 16.26625,21.14125 C16.26625,22.88 16.25,24.2775 16.25,24.71625 C16.25,25.0575 16.49375,25.46375 17.14375,25.33375 C22.27875,23.61125 26,18.73625 26,13 C26,5.8175 20.1825,0 13,0 Z"/>
</svg>
